/* XPM */
static char * matrix_xpm[] = {
"64 64 2 1",
" 	c #FF3737",
".	c #000000",
"                                                                ",
" .. .. .. .. .. .. .. .. .. .. .. .. .. .. .. .. .. .. .. .. .. ",
" .. .. .. .. .. .. .. .. .. .. .. .. .. .. .. .. .. .. .. .. .. ",
" .. .. .. .. .. .. .. .. .. .. .. .. .. .. .. .. .. .. .. .. .. ",
" .. .. .. .. .. .. .. .. .. .. .. .. .. .. .. .. .. .. .. .. .. ",
" .. .. .. .. .. .. .. .. .. .. .. .. .. .. .. .. .. .. .. .. .. ",
" .. .. .. .. .. .. .. .. .. .. .. .. .. .. .. .. .. .. .. .. .. ",
" .. .. .. .. .. .. .. .. .. .. .. .. .. .. .. .. .. .. .. .. .. ",
" .. .. .. .. .. .. .. .. .. .. .. .. .. .. .. .. .. .. .. .. .. ",
" .. .. .. .. .. .. .. .. .. .. .. .. .. .. .. .. .. .. .. .. .. ",
" .. .. .. .. .. .. .. .. .. .. .. .. .. .. .. .. .. .. .. .. .. ",
" .. .. .. .. .. .. .. .. .. .. .. .. .. .. .. .. .. .. .. .. .. ",
" .. .. .. .. .. .. .. .. .. .. .. .. .. .. .. .. .. .. .. .. .. ",
" .. .. .. .. .. .. .. .. .. .. .. .. .. .. .. .. .. .. .. .. .. ",
" .. .. .. .. .. .. .. .. .. .. .. .. .. .. .. .. .. .. .. .. .. ",
" .. .. .. .. .. .. .. .. .. .. .. .. .. .. .. .. .. .. .. .. .. ",
" .. .. .. .. .. .. .. .. .. .. .. .. .. .. .. .. .. .. .. .. .. ",
" .. .. .. .. .. .. .. .. .. .. .. .. .. .. .. .. .. .. .. .. .. ",
" .. .. .. .. .. .. .. .. .. .. .. .. .. .. .. .. .. .. .. .. .. ",
" .. .. .. .. .. .. .. .. .. .. .. .. .. .. .. .. .. .. .. .. .. ",
" .. .. .. .. .. .. .. .. .. .. .. .. .. .. .. .. .. .. .. .. .. ",
" .. .. .. .. .. .. .. .. .. .. .. .. .. .. .. .. .. .. .. .. .. ",
" .. .. .. .. .. .. .. .. .. .. .. .. .. .. .. .. .. .. .. .. .. ",
" .. .. .. .. .. .. .. .. .. .. .. .. .. .. .. .. .. .. .. .. .. ",
" .. .. .. .. .. .. .. .. .. .. .. .. .. .. .. .. .. .. .. .. .. ",
" .. .. .. .. .. .. .. .. .. .. .. .. .. .. .. .. .. .. .. .. .. ",
" .. .. .. .. .. .. .. .. .. .. .. .. .. .. .. .. .. .. .. .. .. ",
" .. .. .. .. .. .. .. .. .. .. .. .. .. .. .. .. .. .. .. .. .. ",
" .. .. .. .. .. .. .. .. .. .. .. .. .. .. .. .. .. .. .. .. .. ",
" .. .. .. .. .. .. .. .. .. .. .. .. .. .. .. .. .. .. .. .. .. ",
" .. .. .. .. .. .. .. .. .. .. .. .. .. .. .. .. .. .. .. .. .. ",
" .. .. .. .. .. .. .. .. .. .. .. .. .. .. .. .. .. .. .. .. .. ",
" .. .. .. .. .. .. .. .. .. .. .. .. .. .. .. .. .. .. .. .. .. ",
" .. .. .. .. .. .. .. .. .. .. .. .. .. .. .. .. .. .. .. .. .. ",
" .. .. .. .. .. .. .. .. .. .. .. .. .. .. .. .. .. .. .. .. .. ",
" .. .. .. .. .. .. .. .. .. .. .. .. .. .. .. .. .. .. .. .. .. ",
" .. .. .. .. .. .. .. .. .. .. .. .. .. .. .. .. .. .. .. .. .. ",
" .. .. .. .. .. .. .. .. .. .. .. .. .. .. .. .. .. .. .. .. .. ",
" .. .. .. .. .. .. .. .. .. .. .. .. .. .. .. .. .. .. .. .. .. ",
" .. .. .. .. .. .. .. .. .. .. .. .. .. .. .. .. .. .. .. .. .. ",
" .. .. .. .. .. .. .. .. .. .. .. .. .. .. .. .. .. .. .. .. .. ",
" .. .. .. .. .. .. .. .. .. .. .. .. .. .. .. .. .. .. .. .. .. ",
" .. .. .. .. .. .. .. .. .. .. .. .. .. .. .. .. .. .. .. .. .. ",
" .. .. .. .. .. .. .. .. .. .. .. .. .. .. .. .. .. .. .. .. .. ",
" .. .. .. .. .. .. .. .. .. .. .. .. .. .. .. .. .. .. .. .. .. ",
" .. .. .. .. .. .. .. .. .. .. .. .. .. .. .. .. .. .. .. .. .. ",
" .. .. .. .. .. .. .. .. .. .. .. .. .. .. .. .. .. .. .. .. .. ",
" .. .. .. .. .. .. .. .. .. .. .. .. .. .. .. .. .. .. .. .. .. ",
" .. .. .. .. .. .. .. .. .. .. .. .. .. .. .. .. .. .. .. .. .. ",
" .. .. .. .. .. .. .. .. .. .. .. .. .. .. .. .. .. .. .. .. .. ",
" .. .. .. .. .. .. .. .. .. .. .. .. .. .. .. .. .. .. .. .. .. ",
" .. .. .. .. .. .. .. .. .. .. .. .. .. .. .. .. .. .. .. .. .. ",
" .. .. .. .. .. .. .. .. .. .. .. .. .. .. .. .. .. .. .. .. .. ",
" .. .. .. .. .. .. .. .. .. .. .. .. .. .. .. .. .. .. .. .. .. ",
" .. .. .. .. .. .. .. .. .. .. .. .. .. .. .. .. .. .. .. .. .. ",
" .. .. .. .. .. .. .. .. .. .. .. .. .. .. .. .. .. .. .. .. .. ",
" .. .. .. .. .. .. .. .. .. .. .. .. .. .. .. .. .. .. .. .. .. ",
" .. .. .. .. .. .. .. .. .. .. .. .. .. .. .. .. .. .. .. .. .. ",
" .. .. .. .. .. .. .. .. .. .. .. .. .. .. .. .. .. .. .. .. .. ",
" .. .. .. .. .. .. .. .. .. .. .. .. .. .. .. .. .. .. .. .. .. ",
" .. .. .. .. .. .. .. .. .. .. .. .. .. .. .. .. .. .. .. .. .. ",
" .. .. .. .. .. .. .. .. .. .. .. .. .. .. .. .. .. .. .. .. .. ",
" .. .. .. .. .. .. .. .. .. .. .. .. .. .. .. .. .. .. .. .. .. ",
"                                                                "};