/* XPM */
static char *_9fd4c964d2c47f0b30b63645bf916f4Lq0ZZga4MKSzNf1A[] = {
/* columns rows colors chars-per-pixel */
"64 64 166 2 ",
"   c #1E1E1F",
".  c #24261D",
"X  c #27281D",
"o  c #2A2B1F",
"O  c #252624",
"+  c #2B2422",
"@  c #272824",
"#  c #2B2C22",
"$  c #2C2C2A",
"%  c #302722",
"&  c #302926",
"*  c #2F3023",
"=  c #2F302C",
"-  c #323425",
";  c #363926",
":  c #383B27",
">  c #32332D",
",  c #38352B",
"<  c #36392C",
"1  c #3A3D2B",
"2  c #343433",
"3  c #383737",
"4  c #373832",
"5  c #3A3B34",
"6  c #3C3C3A",
"7  c #3E422B",
"8  c #3F4134",
"9  c #3F403A",
"0  c #42452D",
"q  c #45492F",
"w  c #424434",
"e  c #464A33",
"r  c #494D33",
"t  c #42433C",
"y  c #46493C",
"u  c #4A4C3C",
"i  c #4D5234",
"p  c #4E523A",
"a  c #515636",
"s  c #535837",
"d  c #51553C",
"f  c #555B3A",
"g  c #595E3C",
"h  c #5D623D",
"j  c #60663F",
"k  c #62683F",
"l  c #444442",
"z  c #474842",
"x  c #4B4B44",
"c  c #4D4D4A",
"v  c #504D4A",
"b  c #4F5143",
"n  c #4F504A",
"m  c #525443",
"M  c #565943",
"N  c #5A5E44",
"B  c #52524C",
"V  c #57594A",
"C  c #5A5C4C",
"Z  c #555552",
"A  c #585756",
"S  c #575852",
"D  c #5A5B54",
"F  c #5C5D5A",
"G  c #5D6243",
"H  c #5E624B",
"J  c #5F6054",
"K  c #5F605A",
"L  c #616643",
"P  c #656B42",
"I  c #696F44",
"U  c #61654C",
"Y  c #666A4B",
"T  c #696E4B",
"R  c #6C7246",
"E  c #6D734A",
"W  c #70764A",
"Q  c #747A4C",
"!  c #787F4F",
"~  c #626453",
"^  c #666954",
"/  c #6A6D55",
"(  c #63645C",
")  c #67685D",
"_  c #6A6D5C",
"`  c #6D7254",
"'  c #6E715C",
"]  c #717655",
"[  c #757A54",
"{  c #797E52",
"}  c #737759",
"|  c #70735E",
" . c #72755E",
".. c #74775E",
"X. c #757A5B",
"o. c #777C5A",
"O. c #797E5C",
"+. c #656562",
"@. c #676862",
"#. c #6B6C62",
"$. c #6C6E62",
"%. c #6A6A69",
"&. c #6E7161",
"*. c #707260",
"=. c #717462",
"-. c #717264",
";. c #727565",
":. c #747665",
">. c #767A61",
",. c #797D60",
"<. c #7A7D64",
"1. c #7C7F67",
"2. c #777A68",
"3. c #7B7E69",
"4. c #7B7E6C",
"5. c #7A7B76",
"6. c #7C7C79",
"7. c #7B8151",
"8. c #7D8353",
"9. c #7B8154",
"0. c #7E8456",
"q. c #7F855A",
"w. c #7B805E",
"e. c #7E825C",
"r. c #7E825F",
"t. c #7E8363",
"y. c #7E8169",
"u. c #7E816E",
"i. c #808657",
"p. c #818759",
"a. c #81865B",
"s. c #828959",
"d. c #83895B",
"f. c #848A5B",
"g. c #898F5E",
"h. c #89905F",
"j. c #828763",
"k. c #808464",
"l. c #848963",
"z. c #838866",
"x. c #878C64",
"c. c #888E61",
"v. c #888C66",
"b. c #81846B",
"n. c #83866D",
"m. c #878B6A",
"M. c #8D9362",
"N. c #8B9066",
"B. c #8F946C",
"V. c #909665",
"C. c #939967",
"Z. c #91966A",
"A. c #959A6A",
"S. c #848772",
"D. c #898C76",
"F. c #8B8D7B",
"G. c #8E9371",
"H. c #8F927E",
"J. c #929671",
"K. c #939970",
"L. c #999E75",
"P. c #92957B",
"I. c #999D7B",
"U. c #8C8D83",
"Y. c #939584",
"T. c #959789",
/* pixels */
"1 1 0 0 0 7 7 0 0 q q e r e w < 4 t u p u y y y z z 6 9 6 > 2 6 6 6 6 9 t 5 5 t 8 t t t l l t 2 4 8 t u u e r r i r 7 0 0 ; : 7 ",
"r I 0.i.7.7.7.9.7.a.s.s.c.j.' y y  .m.N.x.z.b.1.3.y.3.:.;.' S 6 l F $.' |  .| } } o.w.w.k.j.` x y ` l.v.q.0.a.8.8.7.{ Q { Q L 0 ",
"i I Q 7.Q Q Q Q R Q Q W { ] ^ x z _ ` L [ } ,...' *.=._ -.) B t l D J ~ ~ ( ~ T L H ~ ^ / E P m u T { { E E Q R W Q W E ! E j e ",
"7 i h P h j I P h h g g L N x 5 6 m N f N V ~ ~ D ( ( A F Z z 6 6 l c B c c B x y u u b m p y 5 5 p g G a i h f g P I h I h i 7 ",
"; : 0 e q i i i q 0 0 e p w < > 4 8 r r w y x x z c c l z t 2 2 2 2 6 6 6 t l 5 5 4 5 8 w 5 < > 4 < w w - 1 q 0 q i i r q 0 : - ",
"- o o # * * - * # # # # # @ @ > 2 $ # # @ $ $ $ $ $ $ $ $ $ @ $ 2 $ $ $ $ $ 2 $ $ $ @ $ $ $ $ > 2 $ $ $ @ @ # o o # o # o X . # ",
": 7 0 i i r q 0 w w w w w t 8 5 5 5 w 0 w t t 6 6 9 6 6 6 6 2 2 2 6 6 t l l t t t t t t t t 6 6 5 5 8 5 t y w 0 0 0 7 q r q : : ",
"0 W c.Z.M.f.f.i.0.c.c.g.v.m.} y y [ f.g.j.y.2.O.....` X.} X.B 6 6 S =.w.k.w.w.<.' l.m.u.m.l./ l t T a.l.v.N.a.s.0.{ Q 7.0.s.G 0 ",
"i 7.s.g.0.8.Q 7.7.g.g.s.f.a.9.m N 0.0.0.{ X. .E T / E [ E E U t l ( ^ ] } W T / ` q.s.O.a.0.E r y L R 7.s.s.s.0.7.! R E E Q W r ",
"e I E 8.Q P g R R W Q W Q E T u m T E P P G C C M m M Y g g d 5 6 B B ( C N d p M L E L I I g w e f h P I s W W I I j E h I L q ",
"r I R ! Q j h I I E W R W T H t x ~ Y P L N M N m b x G f m t 5 6 c B D B m u x m N G N L L d 5 8 i P I s s R R I R P E I I f 0 ",
"i k E I R R R I j R W R E L N t u G L G m m G G m c x g d x 6 5 6 t z D B B x b m N N N h f b 5 w d G j i s I R I I P R I j a 0 ",
"f I R i h E P P j P R P I G N t x G L f m M L L M c z m u l 6 6 6 t t Z c B b B x N L f h f b t r G G P j h I E I P g i j P s 7 ",
"g P R I I I h h j I I h G N m t B U G G M N g d M m z z l l l 6 6 t t B c n c B c M U M L N u 9 r G U L j h I I j P j s h h g 7 ",
"s h j P P I k P h j R I I N N t m L G G C m y w m x l z t l l 6 6 t y B c c c B c n C M G d y 6 y d N h g h j h h h h R P I h 0 ",
"a h h h h P I R h j I j T N N y m G g M B z t y z z l l t l 6 2 6 t t z l z B B b c Z M G d t 5 w r d f s s h f h P h P P R g 7 ",
"i s a f f g j k h g P P E L N t x N f f c z u u t z 6 t 6 l 6 4 6 6 6 l t l c x c z B b g d t 4 w r p s a s s s s f f P h h a : ",
"i i i s i f g s f s h h I G N y b N G C B c u y t l 6 6 6 t 6 4 6 6 5 6 6 6 l l l l z y d p t 4 8 i d s s i s s i s f h s g a : ",
"i r r a i a s i a f h L h d m 8 x M g m c z p p t 6 6 6 l l 6 4 6 2 2 l 6 6 t t t l z u d u 9 4 t d d i r a f h f f f h g h a : ",
"i i i s i i f i e s h h f u u 4 t p g d z z p u 6 6 6 6 6 t 6 2 6 5 5 t 6 5 y t t l z u d y t 2 9 u p 0 i a s g a i s g h P a - ",
"1 : 1 0 1 1 0 1 1 7 w w y 5 < $ > < 1 5 2 2 < < 2 $ $ $ $ = $ $ 2 $ $ $ $ @ > > 2 2 5 4 5 < > $ > > < : 1 : 7 7 7 1 ; 7 0 q ; o ",
"- # # # o # - * - - $ > > $ $ > 2 $ # # @ @ $ $ $ $ @ @ @ $ $ $ 2 $ $ $ $ $ $ $ $ $ $ = > $ $ 2 > $ @ @ O . o o o o . o o o o # ",
"0 e u r u p d u u b m B D B x c c B V B c B D B c c c B c c c c l l l t 6 l l 6 6 t t 9 t z y t t w w w w 8 0 0 0 e e e r e e q ",
"r u 5 5 w w 8 8 6 t t p } D Z z Z Z ( m D B ( z D c A A A z A l c A B B c A Z c t y d t z z t 5 y 5 > - - > - * - > - # * - < 0 ",
"i i ; : ; 1 1 1 1 7 1 7 N y D 6 B , m & x & v + c $ c $ z + z + l A S B z Z c z x i f y w w < 1 w * * # # - - # - - - * o o - 7 ",
"q q < 1 1 w e r w w w w m n @.l B + b % w + t + y O y O w + l + 6 z z l 5 l l 6 t y r 1 1 7 1 : 5 # # # o # o X # o # # o o * 1 ",
"7 0 8 w w m H H u y u y p p u t x ; d , u ; u 1 d 1 e > w , u > 6 6 6 2 $ 5 6 2 5 8 1 * - - * * < * # # # # # # # # # # # # # ; ",
"1 7 - 7 7 0 e r 1 7 w 8 5 w 8 > < 1 y e r w r i d p y w 1 7 0 4 2 = $ $ $ $ 2 2 4 4 > # - - # . O $ < < < > < 8 7 1 1 1 0 q 0 7 ",
"1 1 : 1 1 : 7 7 1 < 4 4 4 5 4 2 2 > < 1 < - 0 0 5 5 < ; < - > > 2 $ > 4 > 2 2 5 5 3 4 < 1 1 ; > = > 4 4 5 5 5 5 1 : - : 1 ; ; ; ",
"0 g W [ Q E { [ ] ] } ] [ } Y y t D #...] ] t.>.$.@.( Y Y L b 6 6 c ( / / ) %.@.@._ #.+.` E G t l C ` } X...O.[ W E E I I L s 7 ",
"e { C.C.g.g.M.M.M.M.C.M.C.M.a.f b 3.F.P.K.J.P.F.D.u.3.[ { w.) z 6 +.6.b.z.4.5.6.5.b.m.5.n.f.[ x c O.h.M.c.B.Z.M.l.f.0.Q { 8.R i ",
"1 g Q W R I R R R R W E E I L u y Y ' >.[ } &._ U H J B N M c t 6 c F J U D D F D D ^ K H h M l l H I E E / ` T ~ T G i a g s q ",
"- 7 h j j g g g a f f g N V b 6 6 d D ( U ~ K C p M x z x t 6 2 4 6 z c Z c x n c z B B c p y 5 6 u f h h U U N V H f f h i 0 : ",
"- X * ; 1 ; 1 1 ; : ; : < 4 2 = 4 $ 5 6 5 5 6 5 7 1 4 > > $ $ $ > @ $ 2 2 2 2 > 2 2 > 4 2 < > $ 4 $ < 7 7 7 1 < 5 1 ; - ; - o # ",
": * * - - - > > < < 4 > < 4 2 2 6 2 2 2 2 2 4 2 = $ $ $ $ $ $ 2 2 $ $ > 2 4 2 2 4 2 2 2 4 < > 2 6 > > ; - - ; ; - # o o # # # - ",
"0 i g h h G N N N N N N N V z t l Z ( ( ) ( +.K C V Z Z D B t 6 6 z B C D C V B B C N N H G u t l m L P I P P L h g s f h g r 7 ",
"s f.C.A.A.C.Z.C.C.A.A.A.Z.G.' t B S.L.L.I.T.Y.Y.H.H.U.F.U.D._ t z ) <.j.l.s.e.y.X.M.M.M.A.V.Q y m a.M.C.C.C.A.A.M.C.M.M.A.V.Q q ",
"h ! Q Q { W Q 7.i.f.s.f.0.O...y S ,.e.s.t.<.>.>.=.&.( ) _ _ ) t z F D / Y I N N Y Q I W 0.8.W y M Q Q Q E R W Q E Q I W 0.8.W e ",
"i P h a P P R E R Q W Q Q T U t x _ ] [ _ ) ) ) #.) D K u u Z 6 l c Z J B M u u m G h R R R I w r j R I h f j R R R h R R R I q ",
"i s r r h P R R h I R ! W E U t x ( ` [ ) +.) @.#.( F +.M m n 6 t z B D B B z b m G I E R I I w y L R P h G L E Q W I E R I I 0 ",
"f h a g I R W Q W R W Q R [ U t n / ' ` ) %.( +.) B Z ( H V c 6 t 6 z D B B x b m G P R j I L y u h I I G T P R W R P R j I j 0 ",
"f P h I E R R W R I E W E ] U 8 x ^ _ / ) %.@.+.F A Z F D V c 6 t t t Z c B B B b N P R a h P w u g P h U ` P I R E P R a h P 0 ",
"s P h I P P j R R h I R L U M 5 z C C ( ( %.%.( A Z c A A D Z 6 t t y B c B c B c m P E I I j 7 u G L C Y E I I R I P E I I h 0 ",
"a g h I R P h I P h h g G N u 5 z u p ( ( %.+.A S B v D D Z c 3 l t x Z B Z A Z B m P E W E P 0 y f N y L W E P E R P E W E P 0 ",
"s g f P I P h h h h h e f N m 9 z G T J ( #.D c m y B D Z B z 2 l l Z D Z Z D Z B S Y E R R k 0 y d G G I W T H I R R R R R P 0 ",
"a f a i j s f s g I I G N m d 6 l H / J ( _ H x 5 y C D Z c l 2 l 6 Z Z Z D S S B B L I P I h 7 y M L I R Q Y u i h P I P I h 7 ",
"i s a h h s a i h h h G G p p t l D ) ( D ~ H M r f B Z c c l 5 c c B Z B Z C / ~ Z L I P P h 1 y f L I R W I P P P P I P P h 1 ",
"i a i s s r r i s g h g N p p 6 t M C ~ B B m H U V D Z z z l 6 c A Z c z B M T Y S H P j P s 1 y f I I P I I E W P I P j P s 1 ",
"r i a h g i r i s a f h f w w 6 y d r U B S S F F Z D Z c c z 6 c Z A c z B i T T C U L h s i 0 w f P P h h f L E P I k h s i 0 ",
"0 r a h g i r r a 0 f G M u u 6 l M N D B B w B +.F x c B z t 6 z B Z B c B P E E J N h h i e 0 w p h h h h a h W I j h h i e 0 ",
"r a s h f a r i h a s h G M y 5 l B M S Z B p C K F 5 t B z l 5 l z c c c c G W E D m g s 0 0 7 8 i h g f g h R E I g g s 0 0 7 ",
"q e i h h s i r h f s g d p u 5 l Z S Z Z Z U ~ F D y x c c z 2 6 l Z c z c N T T C m g f s a 1 8 i h g s s h R W P s h f s a 1 ",
"r i r h h g i s P a a h N p u 4 l Z ( ~ D B m B F Z l c z l 6 2 6 l B B n c p s L n y e i a i < 5 r G h g s i s P g i r i a i ; ",
"r i r g s i i f h a a h f p u 4 6 B M i U B y B S B 6 l l 6 6 2 6 c B B B l y s m z w 0 r i q ; < y G h h i r s f i e 0 r i q - ",
"- 1 7 r q 0 0 e i q r s p i 5 $ 2 y d a N x t z t 5 2 6 2 2 $ $ 2 6 l y u 8 1 r w 5 7 0 0 0 : * > w p r i 0 7 i r 0 7 0 0 0 : * ",
". . . # o o o o - * - - * # O $ $ @ * * # @ @ @ O O O @ @ O   @ @ @ $ @ # . . # o . . X o . . @ @ O # # # X . # o . . X o . . . ",
"o o X X . X o # @ @ # # $ $ $ > $ $ $ $ $ $ $ $ @ @ @ @ $ @ @ $ $ $ @ $ @ @ $ $ $ $ $ $ $ $ $ 2 $ $ $ $ @ $ @ # X . X X o . X o ",
"0 7 7 0 0 0 0 w w w y u t l t w y l l l z z t t 6 6 5 6 6 6 6 6 6 6 2 6 6 6 6 6 t 9 6 t l t 6 9 t t t t y y w w 0 7 1 7 0 0 0 0 ",
"P P P E P P I I E E E E ` ) ~ P E #.( ^ =.;.` } ^ ~ D D F F F F A c z Z B B V C U N m Z H C M h N J H G E ] T E I I P I W E R E ",
"P I I I h R R I R E ` E ` ) ~ P L ) _ E ] X.` E ^ ~ D A ( A Z D B c c c z B V G N M m B V m m G M D G h T ` ~ Y P I P P R I P I ",
"a h h h h I I R R U ( Y U F S G g V ( ^ _ ( N Y ( ( F A A Z B B c c c z z B V M d m B c b m c f m m d s U ~ D G P I I P h P I R ",
"a s s s g P I E I C D H C Z B d f B F F +.+.V ~ ( ( F A Z c z z l l z l c c n M p x c c x b z p x x d f U T G L I I I P P P P I ",
"a i g g h P I R P V Z C V Z Z m f D F A +.( V ~ ( F F B c z t l 6 6 6 8 t c c m r t z c t t l u z u p d H L g G L h h g h h h P ",
"q r s f h j h j G B Z V S c c y b Z A B Z A V V A Z Z b y 6 6 l 6 6 4 7 8 l l b p t l z t 9 9 y l u y y x d b V M f a i i g h h "
};
