/* XPM */
static char *_8f4495f98c54977e71e8a2483dcae066SKD8TrhfSfeejim[] = {
/* columns rows colors chars-per-pixel */
"64 64 111 2 ",
"   c #1E1F19",
".  c #251B19",
"X  c #291D1A",
"o  c #301F1B",
"O  c #1F2019",
"+  c #24261C",
"@  c #2D251D",
"#  c #27291D",
"$  c #2A2C1E",
"%  c #33251E",
"&  c #32281F",
"*  c #2C2E20",
"=  c #372620",
"-  c #3B2620",
";  c #352C21",
":  c #3B2A22",
">  c #2E3121",
",  c #323523",
"<  c #3A3526",
"1  c #363925",
"2  c #393C27",
"3  c #3B3E28",
"4  c #432C24",
"5  c #492C23",
"6  c #453126",
"7  c #4B3327",
"8  c #473028",
"9  c #4E352A",
"0  c #423C2C",
"q  c #523226",
"w  c #52352B",
"e  c #5A3629",
"r  c #57382C",
"t  c #5B3A2D",
"y  c #563C30",
"u  c #5A3C31",
"i  c #633C2D",
"p  c #683F2E",
"a  c #603E32",
"s  c #3E422A",
"d  c #41462C",
"f  c #4B422F",
"g  c #454A2E",
"h  c #4A4230",
"j  c #474C30",
"k  c #494E31",
"l  c #534935",
"z  c #4D5233",
"x  c #515635",
"c  c #545937",
"v  c #565C38",
"b  c #595E3A",
"n  c #63412F",
"m  c #6D422F",
"M  c #654331",
"N  c #6B4332",
"B  c #6A4B3A",
"V  c #744631",
"C  c #764A35",
"Z  c #7B4C34",
"A  c #724B3C",
"S  c #5C633C",
"D  c #60673E",
"F  c #62683F",
"G  c #7C5740",
"H  c #616641",
"J  c #656B41",
"K  c #686F43",
"L  c #6C7245",
"P  c #6E7449",
"I  c #707749",
"U  c #737A4B",
"Y  c #747A4B",
"T  c #73794D",
"R  c #757B4D",
"E  c #777E4E",
"W  c #787E4F",
"Q  c #767C51",
"!  c #787E50",
"~  c #797F52",
"^  c #85573C",
"/  c #876044",
"(  c #876348",
")  c #946C4E",
"_  c #987455",
"`  c #7A814F",
"'  c #7A8051",
"]  c #7C8252",
"[  c #7D8453",
"{  c #7D8355",
"}  c #7F8555",
"|  c #808656",
" . c #828957",
".. c #818758",
"X. c #838A5A",
"o. c #848B5B",
"O. c #868D5B",
"+. c #858B5D",
"@. c #878D5E",
"#. c #888E5F",
"$. c #8A915F",
"%. c #888F60",
"&. c #8B9161",
"*. c #8D9362",
"=. c #909667",
"-. c #929966",
";. c #959B6A",
":. c #989E6D",
">. c #999F70",
",. c #9AA06F",
"<. c #9BA171",
/* pixels */
"3 3 s d d s 3 d d d d g g g d 1 2 d j z z j j j j j s d d , 1 s s 3 s d d 3 3 d d d g g g g d 1 2 d g z g g g j j g s d d 1 2 s ",
"z L { } ' ' ' ' ! ..X.X.@.X.I j j E @.&.@.o.o.| | X.} ! E I S d j J U U R R T E R ' } } X.X.L z j I O.#.} { } ' ] ' E E E R S d ",
"z L ! ] E R R R L T R U ] R L x z U P J E E [ ` R E W U W P S d j F J L L L K L J J K P P P J c z L ' ! P P T P U E I P W P D j ",
"s z D J D D J J S S S b J S z d d S S v S S L J F L J S J S z s s g x v c c v x j z z x c z j s s x S S c x S b b J J S L S z s ",
"1 2 g j g z x x g g g j x g 2 , 2 d z z g j x x z c x j z g 2 , 1 1 s d s g j s s 2 s d g s 2 , 1 2 d d 1 s g d g z x z g d 1 , ",
", $ $ * > > , > * $ # $ $ $ # , , $ > $ # $ > > $ > * $ $ # + > , $ $ > * > , $ $ # # $ $ $ # , , $ $ $ # # $ $ $ > $ $ # # + * ",
"2 s d z j j g d g g g d d d s s 3 s d s d d d s s d 3 s s s 1 1 1 3 s g g j g d d g g d d d s s 3 s s s d g g d d d s g j g 1 2 ",
"g I #.=.$.o.X.} ' @.%.@.%.@.T j z E o.O.X.X.] ' ' E U E R ! v s s S E | X.| } ' U +.@.X.#.o.P g g L | +.%.&.| X.{ E T ' }  .S d ",
"z ' X.$.} [ ! ] ] $.#.o.O.X.] c S [ [ } ] ' E P L P P E I I J g j L P R E Y L P P  .o.[ o.} L j j J P { o.X.o.} ] ' L P P W I j ",
"j K P ] E J b L L U E U E I L z v L L J J S S S b b v J S S c s d b b K D S c x S J L F J L b d g v S F J v I I K K D P S K D g ",
"j J P ` E S S J K P U L U L D j c J K J F S b S c c x D v c g 3 d x b J b c z z c S S S D D x s d z J L c v L L J L F I J J b d ",
"z J P L L L L K F L U L P D S j z D J S v v S S c x z S c z d 3 s g z D b c x c c S S S S v x s d x D D z v J L J J J L K D x d ",
"b J L j S P J J D J L J K S S g x D D v c v F D v x z c z j d 3 s g j S c c c c c S D b S b x d j S S F D S L P K F b z D J c s ",
"b J L K K J S S F J K S S S v d v F S S b S b c v v z z g j g 3 d g d b c c c v c S J v D S z d z D J J D D K J D F D x S S b s ",
"c S D J J J F J S D L J J S S g v J S S S c j g c x g z d g g 3 d g j c x c c v c c D S S c z d j c S S b S D S S S S L J J S s ",
"x S S S S F J L S F J F L S S g c S b b v z g j z z g g d g d 2 d d g z j z v S c x S b S x g s g j c v c v S v D F S J J L b s ",
"z v x v c S F F S S J F P F S g x S v c x z z j g j g g d j d 1 s d d j d j x x c z c c b x j 3 d j z c x c c c c v b J D D z 2 ",
"z z z c z c b v v c S S L S S g x S S S v c z j g g s s s g d 1 s 3 3 g s d j j j g z z c z g 1 s z c c c x c c z v v S c b x 2 ",
"z z z c z x c z x b S D S c c d z v S c x z z z g d s d d g s , s 1 3 g d s j g g g z z c z d 1 g c c z z x c S v v v S b S x 1 ",
"z z z c z z c z g c S S v z z 2 g x b c z z x z s s s s d g s , s 3 3 g d s j g g j z z c j g 2 d j z g z x v b x z c S S F x , ",
"2 2 s d s 3 d s 3 d g g j s 1 * , 3 s s 3 3 3 3 , , * > > , > $ , * * , * * , , 1 3 3 3 s 1 , > , , 1 2 s 2 d d d s 2 s g g 1 $ ",
", $ * > $ * , > > > > , , > > , , $ $ $ # # * > $ # + + # # # * , $ $ $ # $ > * > > > , , > > , , $ $ # + + # $ $ # + # $ $ $ * ",
"d g z j j z x z j x v b D c z x c v S v x c S c x x x c x z x z j j g g d j j s s g g d j z j j g d g d d d d d d g g g g g g g ",
"j z s s g d d d d j j c E J S z S S K v D v K z D v J S J z S j x S b c c S b x g g c j x z g s j s , , , , , > , , , > , , 2 g ",
"z z 1 2 1 2 3 3 3 s 3 s S z D g b 0 v ; x ; v ; x * x , z & x @ j S D v z b c z z z v j d d 1 3 d > > * $ , , * , , , * # $ , d ",
"g g 2 3 s g j j g d d g v v T z v & x & g & k % k # j + d % k @ d z z g 3 g g d j j j 3 3 s 3 2 s > * * # * $ # $ $ * $ # $ > 3 ",
"s g d g j c S S j z z z x z j g c < c 2 z < z 3 c 3 j , d < z , d s d 1 , s d 3 d d s > , , > > 2 > * * # * * * * * * * * * * 1 ",
"3 3 , s s d g j 3 d d s s d s , 2 s j g j d j z c z j d s d d 3 2 , $ $ # * , 1 1 3 , $ , , * + + > 1 2 1 , 3 d d 3 s s d g d s ",
"2 1 1 2 2 2 3 s 3 2 3 2 2 3 1 , , , 2 3 , , d d s 3 1 , 1 , , , , > > , , , 1 3 3 2 1 1 2 1 , , > , 1 1 2 2 s 3 3 1 , 1 3 1 1 1 ",
"g b P T I P R T T I T I R T J g g S I Q P P { Q P L K J J S x s s x J P P K I P P P P P P L S g g S P T Q Q ! R P P K J J S x s ",
"j ' ;.=.$.#.*.=.*.*.=.=.-.*.| c c  .-.:.;.;.;.-.*.O. .W ' } P j d P O.#.#. .X.O.O.#.*.O.$.O.W x c [ $.=.&.-.-.*.@.O.} E ' } L z ",
"3 S E Y L J L L L L U P P K J z z L R ] ` E Y I J J J b S b c d 3 x J J J F D J F J L J F S S j j F K P L U I L J L S z x S c g ",
", d S F D S S b c b b S S S c s d c F L J K J S z b x z z j d 2 , s z v S c c c c z v b c z j s s z v S S J J S S F v v S x g 2 ",
"> # , 2 s 2 3 3 1 2 1 2 2 3 , , 1 , s d d s s s d s 1 , , > # > , # > , 2 1 1 1 1 , , 1 2 2 , , 1 > 2 s s s s 2 s s 1 1 2 , $ * ",
"2 > > , , , , , 1 1 1 , , 1 , 2 3 , , , , , , 1 , $ $ $ $ $ * , 2 > > , , , , , , 1 1 , , 1 , 2 3 , , , , , , 1 , $ $ # $ $ * , ",
"d z b S b S b S b S S S b b j g g v J K K K K H S b v v S v g s d z b S b S b b b b b b b v j g g c S J J H J S b v x v b v g s ",
"v o.-.;.:.-.-.;.=.;.;.;.-.=.I j b $.,.,.<.<.<.:.;.;.-.=.;.*.P d c #.:.>.:.;.;.-.*.*.=.-.-.*.P j v  .*.-.-.-.;.-.*.-.*.*.-.*.U g ",
"S ' W E ' U W ]  .O.o.O.} } W j S [ } o. .| ' ] ' R L P T U L d S } } X. .' ] W S L ! W E E U j S E E R P L U E P T K U } [ I g ",
"x J S c F F L P L E U W U L J g c I E E P L P P U P D J z z S s v J b d g d s d 3 3 3 d s x S d z D L K S v D L L K S L P P K d ",
"z c j j D J P L S K P W U I J d x L U E P P L I Y L J L b c c 3 c F 1 @ n M 4 n M 6 9 M 6 , x g j F L J S D F P E U K I L L J d ",
"b S x v J L U E I L U E L E J d c P U U P U L P L S S L J b z s c J 1 X r a 4 u N 4 8 t - , b j z S K J S L J L U L J L F K S d ",
"b J S L I L P U L J P U L U J d x L U P P E I P J S S J F S x 3 c F 3 : w i 5 a A 9 q r 5 s v d j S F S J U J L L P J K z S D d ",
"c F S J J F D L L S K L J F b s z D D J L Y U K F v c D S S v s c J 3 < N N w G ) B M N w 3 z s z S F S L I K J L K J P J J S d ",
"c S S K L J S J J S S b S S z s z z x L L E P S S b v D D S c 3 z b , % m N y ( _ B M V 5 * j 3 j b S g J U L J P L J P P P J d ",
"v S v J J J S S S S S g v S c d z S K J K U J c v j S D S v z 2 j j * & Z Z t / ) M n Z q , g 3 j c D S L U L D K L L P P L F d ",
"c v x z D v v v b J K S S c x d j F P F J I F z s g S S S v j 2 j 3 # & Z Z r C ^ t i Z q * g s j v D J L Y J z z S J J J J S s ",
"z c c S S c x z S S S S D z x d j F P J J J F b j v v b c z g 2 x x * : Z C 7 p Z r i V q , d 3 g v D K L U K J J F J J J J b 3 ",
"z x z c c z j z v b S S S x z s j S D J S S b J J S S b z z j 3 c S , ; i e 4 t N w r m 7 2 g 3 g b J J J J J P I J J J D J c 3 ",
"j x c S v z j z c c v S v d g d z x z J S S S J J S S S c x j 3 x b , . 5 - o 5 q - : q % , j s g v J J S S b J P J J F S v x d ",
"d j x S b z j z x g v S v j z d j S S J v v d v L J x c v z d 3 z c > . 4 4 % 4 r = : w = * j s d z S S S S x D U J D S S z j d ",
"z x c S v x j z S x c S S b j 3 g S S S S c z S K J s j v j g 2 g z d , 0 0 0 h l 0 0 f 0 g j 3 d z S S v b S L I J b b c d d s ",
"g g z S S c z z S v v b c x z 3 j S S S S S J J J S j x c x j 1 s g c D S S J J P J H S S v z s d z S b c v S L I J v S v c x 3 ",
"j z j S S b z c F x x S b z z 2 g S L J S b c b J S z c j g d , 3 g x J J S S S J S S F S c j 1 s z S S b c z v J b z j z c z 1 ",
"j z z b c z z v S x c S v x j 1 d b b z J c j c S b g j g d 3 , d z x D S b S S J b v S b c j 1 3 j S S S z j c v z j d j z g , ",
"1 3 s z g d d j z g z c x z s > 1 z c x S z g z g d 2 s 1 , > $ , d j v g g z c v j z c z z d , , g x z z d s z j d s g g d 1 > ",
"+ + + * $ # $ * , > , 1 , $ # # # # , , > * # $ + + + + + O   + + + # > # # * , , > , , , * # # # # > $ $ # # * # + + # # # + + ",
"$ # # + + # # # $ $ $ > * $ * , > # $ $ # # # # # + + # # + # $ $ # # + + # # # $ $ $ * $ $ * , > $ $ $ # $ $ # # + + # # + # $ ",
"s s s d s s s s d d g j j g g g g g g g j g g d s 3 2 3 s 2 s 3 s 2 1 s 3 3 s s d d d d g d s d d d d d g g g d s 3 3 s d s d s ",
"J F J P J J J J P L P L I L J J L U K K W E I U L J S D J F J J S c z b c v S S J S v S F S S S S J D S P U K L K J D J I P L P ",
"J J K J S L L L P P I L P P J F F P I P E W U U L J F J K S S D b c c c z v S S S b v b S v v S S F S S L U L K J L J J P J J K ",
"x S D S S K K L L J K L J J D S S S K L I L S K J L J J S b c c x x z j z v S v x v c c c c c v v v c v J J D D F K K J S F J L ",
"x c c c b J J P K S F F S S b c v S J J P L S J L K J S S x z z j j j j z c v b x x x z z c z x x x x b J L D J K K K J F J J J ",
"x z b b S J K L J S S D S b b c v J J J L J S K K J J b c j g j d s d d j x x c z g z z j g j z z z z x D D S F J S S b S S S J ",
"g j c v S D S F S S S S S x x z x S S v S J S S F S S c g d d g s s 3 s d j j c x g z z g d d j z z j j x c x S b v x z z S S D "
};
