/* XPM */
static char *_0336b02f8334bffdffb5e26f0f87801f8c6pPiGTDESZTGJ[] = {
/* columns rows colors chars-per-pixel */
"64 64 202 2 ",
"   c #1F1F1B",
".  c #1F201E",
"X  c #24251D",
"o  c #2F261D",
"O  c #27281E",
"+  c #2A2C1F",
"@  c #3F291B",
"#  c #252623",
"$  c #2B2422",
"%  c #272825",
"&  c #2A2C23",
"*  c #2B2C2A",
"=  c #302722",
"-  c #302A26",
";  c #2F3123",
":  c #2F302E",
">  c #323424",
",  c #363926",
"<  c #383C27",
"1  c #32332D",
"2  c #38352C",
"3  c #36392C",
"4  c #3B3D2B",
"5  c #343532",
"6  c #373833",
"7  c #3A3B35",
"8  c #3C3D3A",
"9  c #453B35",
"0  c #443C36",
"q  c #4D3F37",
"w  c #433E3A",
"e  c #3E422B",
"r  c #3F4134",
"t  c #3F403A",
"y  c #42452D",
"u  c #45492F",
"i  c #424433",
"p  c #464A33",
"a  c #494D33",
"s  c #42433C",
"d  c #47493C",
"f  c #4A4D3B",
"g  c #504B3D",
"h  c #4D5234",
"j  c #4E523B",
"k  c #515636",
"l  c #535937",
"z  c #51553C",
"x  c #565B3A",
"c  c #595E3B",
"v  c #6C482F",
"b  c #5D623D",
"n  c #60663E",
"m  c #62683F",
"M  c #454442",
"N  c #494744",
"B  c #474842",
"V  c #4B4B44",
"C  c #4D4D4A",
"Z  c #524C44",
"A  c #514F4B",
"S  c #4F5143",
"D  c #4F5049",
"F  c #525443",
"G  c #5A5741",
"H  c #565943",
"J  c #5A5D43",
"K  c #52524C",
"L  c #5A554F",
"P  c #57594A",
"I  c #5A5C4B",
"U  c #555552",
"Y  c #585755",
"T  c #575852",
"R  c #5A5B54",
"E  c #5C5C5A",
"W  c #604D42",
"Q  c #615F4F",
"!  c #7D5D4A",
"~  c #615750",
"^  c #625B55",
"/  c #6C5C52",
"(  c #615E5A",
")  c #5D6242",
"_  c #5E614B",
"`  c #5F6155",
"'  c #5F605A",
"]  c #616643",
"[  c #656B42",
"{  c #696F44",
"}  c #61654C",
"|  c #666B4B",
" . c #696E4B",
".. c #6C7246",
"X. c #6D734A",
"o. c #70764A",
"O. c #747A4C",
"+. c #787F4F",
"@. c #626453",
"#. c #686457",
"$. c #666954",
"%. c #6A6D55",
"&. c #62635C",
"*. c #6A645C",
"=. c #67685D",
"-. c #6A6D5D",
";. c #7A6457",
":. c #74645A",
">. c #7A695E",
",. c #6D7254",
"<. c #6E715C",
"1. c #717655",
"2. c #747A54",
"3. c #797E52",
"4. c #72755B",
"5. c #757A5B",
"6. c #797E5C",
"7. c #656562",
"8. c #6B6762",
"9. c #676861",
"0. c #6A6A65",
"q. c #6C6B69",
"w. c #776D66",
"e. c #716F6B",
"r. c #6E7061",
"t. c #727463",
"y. c #767A61",
"u. c #7A7E64",
"i. c #72716C",
"p. c #79766A",
"a. c #7B7E6A",
"s. c #757471",
"d. c #7B7A76",
"f. c #7D7D7A",
"g. c #99592B",
"h. c #895E3E",
"j. c #905E35",
"k. c #956139",
"l. c #845F4A",
"z. c #8A6349",
"x. c #966746",
"c. c #886956",
"v. c #916D58",
"b. c #8B705F",
"n. c #99755A",
"m. c #877467",
"M. c #88786E",
"N. c #957A66",
"B. c #937C69",
"V. c #857B74",
"C. c #817E7B",
"Z. c #7A8152",
"A. c #7C8354",
"S. c #7D825C",
"D. c #7E8362",
"F. c #7E816C",
"G. c #808757",
"H. c #81865B",
"J. c #848A5B",
"K. c #888F5E",
"L. c #89905F",
"P. c #818563",
"I. c #848964",
"U. c #898E63",
"Y. c #82856C",
"T. c #868B6A",
"R. c #9C836C",
"E. c #8D9363",
"W. c #8F946C",
"Q. c #919666",
"!. c #929867",
"~. c #90966B",
"^. c #949A6A",
"/. c #888876",
"(. c #82807E",
"). c #8C8F79",
"_. c #9B8A75",
"`. c #8F9376",
"'. c #949975",
"]. c #999E74",
"[. c #868381",
"{. c #8B8682",
"}. c #8C8A87",
"|. c #8E8C89",
" X c #998C83",
".X c #918E8C",
"XX c #939687",
"oX c #94928E",
"OX c #969391",
"+X c #9B9794",
"@X c #9D9996",
"#X c #9E9C99",
"$X c #A2968C",
"%X c #A79D92",
"&X c #A39F9B",
"*X c #A3A09E",
"=X c #A6A3A1",
"-X c #A9A5A2",
";X c #ACA9A7",
":X c #AFADAB",
">X c #B1ACA7",
",X c #B2B1AE",
/* pixels */
"4 4 y y y e e y y u u p a p i 3 6 s f j f d d d B B 8 t 8 1 5 8 8 7 8 t t 7 7 s r s s s M M s 5 6 r s f f p a a h a e y y , < y ",
"a { A.G.Z.Z.Z.Z.Z.H.G.G.U.P.<.d d 4.T.E.U.I.Y.a.a.F.a.t.t.<.T 8 M E 0.<.4.4.4.5.1.5.S.S.P.P.,.V d ,.T.U.S.A.H.Z.Z.Z.+.+.3.O.] y ",
"h { +.Z.+.O.O.O...O.O.o.3.1.$.V B -.,.] 2.4.u.4.<.t.t.-.t.=.K 8 M Y ` @.$.&.@. .] _ @.%.%.X.| F f ..3.3.X.X.O.X.o.O.o.X.+.X.n a ",
"e h n m n n [ [ b b c c ] J V 7 8 F J c J P $.@.R &.&.Y E U V 8 8 M C K C K K V d f f j z j p 7 7 h c b k h b x c [ [ b { b h e ",
", < u p u h h h u y y a j i 3 1 5 r a a i d V V B C C M N s 6 1 5 5 8 8 8 s M 7 7 5 7 r i 7 3 1 5 , i i , 4 u y u h h h u y < > ",
"> + + & ; ; > ; & & & & & % % 1 5 * & + % * * * * * * * * * # * 5 % % * * * : * * % % * * * % 1 5 * * % # % & + + ; & & + O X & ",
"< e y h h a u y p p i i i s r 7 7 7 i y i s s 8 8 t 7 8 8 8 5 6 6 7 8 s M M s t s s s s s s 8 8 7 7 r 7 s d p y y y e u a u < < ",
"y o.K.Q.E.J.J.G.A.K.U.K.U.T.1.d d 2.J.K.H.D.p.6.5.5.,.5.4.5.K 8 8 T 4.S.P.S.S.u.<.I.T.F.T.I.%.s s  .H.I.U.E.H.G.A.3.O.Z.A.G.b y ",
"h Z.G.K.A.Z.+.Z.Z.K.K.G.J.H.Z.F J A.A.A.3.5.4.X. .%.X.2.X.X.} s M &.%.1.1.o. .%.,.S.G.6.H.A.X.a p ] X.Z.G.H.G.A.Z.+...X.X.+.o.h ",
"a [ X.Z.+.[ c ....O.+.o.+.X. .f F  .X.{ | ) I I H F F | c c z 7 8 K K &.I J z j H ] X.] [ { c i p x b [ [ x o.O.{ { n X.b [ [ u ",
"a [ ..+.+.n b [ { X.O...O. ._ s V @.| | ] J H J F S V ) x F s 7 8 C K R K F f V F J ) J ] ] z 7 r h | ..x x ....{ ..m o.[ [ c y ",
"h m X.{ ......{ n ..O...X.] J s f ) | ) F F ) ) F C V c z V 8 7 8 s B R K K V S F J J J b x S 7 i z ) n h x [ ..[ [ [ ..{ n k y ",
"c [ ..h b X.[ [ n [ ..[ { ) H s V ) ] c F x ] ] H C V F f M 8 7 8 s s U C K S K V J ] c n x j s a ) ) [ n b { X.{ m c h n [ x e ",
"c [ ..{ { [ b b n [ { b b J F s F } ) ) H J c z H F N V s M s 6 8 s s K C K C K C H } x ] c f t a ) } ] n n [ [ n m n x b b c e ",
"l b n [ [ [ m [ b n ..[ { J J s F ] ) ) I F p p z V M N s M M 7 8 s d K C C C K C D I H ) z d 8 p z J b c b n b b b b ..[ [ b y ",
"k b b b b m [ ..b n [ n  .J c d S ) c H K B s d B M M M s M 8 6 8 s s V M V K K S C U H ) z s 7 i a z x l x b x n m b [ [ ..c e ",
"h x k x l c m m b c [ [ X.] J s V J x z V V f p s N 8 s 8 M 8 5 8 8 8 M 8 M C V C V K S c z s 6 i a h l k l x l l x x [ b n k < ",
"h h h l h l c x x l b b { ) J d S J ) I K C f p s M 8 8 8 s 8 5 8 8 7 w 8 8 M M M M V f l h s 5 e h z l l k l x h x x b x c k < ",
"h a h k h k l h k x b n b z z r V H c F C V j j s 8 8 8 s M 8 5 8 5 6 M 8 8 s s s M V f z f 8 5 s z z h a k l b x x x b c b k , ",
"h h h l h h l h p l b b x f f 5 s j c z V B j f 8 8 7 8 8 s 8 5 8 7 7 s 8 7 d s s M V f z d s 6 t d h u h k x c k h x c b m k , ",
"< < 4 e e 4 y 4 4 e p i p 7 3 * 1 3 4 7 6 6 3 3 1 * * * * : * * 1 * * * * % 1 1 5 5 7 6 7 3 1 * 1 1 , 3 4 < e e e 4 , e y u , + ",
", & & ; + & > ; > ; * 1 1 * * 1 : * & & # # * * * % # # # % * * 5 * * * $ * * * * * * : 1 * * 5 1 * % % # X + + + + X + + + + & ",
"y p f a f j z f f S F P R K V C C K L K C K Y K C C C K C C C C M M M s 8 M M 8 8 s s t s B d s s i i i i r y y y p p a a p a u ",
"a f 7 4 i i r r 8 s s j 4.R U V U U &.F Y K &.V Y C E Y E V Y M C Y K K C Y U C s p z s B B s 7 d 7 1 1 > 1 > ; > 1 > & ; > 3 y ",
"h h , < , 4 4 4 4 e 4 e J d Y 8 K 2 F - V - A & V % C * N $ V $ M Y T K N U C V V h x d i i , 4 r ; ; ; & > > & > > , ; + + > e ",
"u u 3 4 4 i p a i i i i F D 9.M K $ f = i $ M $ d # d # i $ M $ 8 B V s 7 M s 8 s p a 4 4 e 4 3 4 ; & & + & + O & + & & + + ; 4 ",
"e u r i i F _ _ f d f d j j f s V 2 z 3 f 2 f 4 z 7 p 1 i 2 f 1 8 8 8 5 * 7 8 6 7 r 4 ; > > ; ; 3 ; & + + + & & & & & + & & + , ",
"e 4 , e e y p a 4 y y e 7 i r 1 3 4 p p a i a h z j p i 4 y y 6 6 : * * % * 5 5 5 6 > & > > & X # * 3 3 2 1 3 e e 4 4 4 y u y e ",
"< < < 4 < < e e 4 3 6 6 6 4 3 1 5 3 3 4 , , y y 7 7 3 , , > 1 1 1 * : 5 1 5 6 7 7 6 5 3 4 < , 1 * 1 5 5 6 7 7 7 4 < , < 4 , , , ",
"y c o.2.O.X.3.2.1.1.1.1.2.1.| d s R 0.5.1.1.D.5.-.=.$.| | ] S 8 8 C &.%.%.=.q.0.0.-.0.9.,.X.) s M I ,.4.5.5.6.2.o.X.X.{ { ] l e ",
"p 3.!.E.K.K.E.E.E.E.Q.E.Q.E.G.x S a.).'.'.W.`.)./.F.a.2.3.S.=.N 8 7.f.Y.I.a.d.f.d.Y.T.f.Y.J.2.V C 6.L.E.U.W.~.E.I.J.A.O.3.Z...h ",
"4 c O.O...[ ........o.X.X.{ ] f d | <.y.5.1.r.-.} _ ` F J H C s 6 C E ` } R Y E Y R $.' _ b J M M _ { X.X.%.,. .@. .b k k c x u ",
"> e b n n b c c l c c c J P S 8 8 z R &.} @.' I j H V B f s 8 6 5 7 V C U C V D C V K K C j d 7 8 f x b b } } J L _ x x b h y < ",
"> O ; , 4 , 4 4 , < , 3 3 6 1 * 5 * 7 8 7 7 8 7 e 4 1 1 1 * % * * # * 5 5 5 5 1 5 1 1 5 6 3 1 * 5 & , e e e 4 3 7 4 , , , > + & ",
"4 ; ; > > , 1 1 3 3 3 1 3 5 1 6 8 1 5 5 5 1 5 5 1 * * * * * * 5 6 * * : : 5 5 5 5 5 5 5 5 3 1 6 8 1 1 1 , , , , > + + + & & & > ",
"y k c b b ) J J J J J J J P B s M U &.&.=.&.7.R F Z V Z K Z s 0 w g G G G G G G I _ J J _ J f s s F ] | { [ | ] b c x x b c a e ",
"x J.Q.^.^.!.Q.!.Q.^.^.^.Q.`.<.s K /.].].].XXXX/.h.x.x.z.x.x.x.x.h.k.k.j.k.g.g.v S.^.E.E.!.E.O.p F H.E.!.!.!.^.!.E.!.E.E.!.E.O.u ",
"b +.+.O.3.o.+.Z.G.J.G.J.A.6.4.d T u.S.G.D.a.y.4.n.v.c.b.m.c.N.B.c.z.! ! l.v v @ c O.{ o.A.Z.o.p H O.O.O.X...o.+.X.O.{ o.A.Z.o.p ",
"k [ b k m m ..X...O.O.+.O. .} s V -.1.2.-.=.=.#.n.c.;.m.M.m.w.:.w./ / / ;.W q o c ..b ......{ y a n ..{ b x n ......b ......{ y ",
"h l a a b [ ....b { ..+.O.X.} s V &.,.2.=.7.7.*.v.;.:.V.V.p.w.*.*.^ ^ ~ *.Z q & ] O.{ X...{ { y p ] ..[ b n n X.O.O.{ X...{ [ y ",
"x n k c [ ..o.+.o...o.+...2.} s D %.<.,.=.0.&.*.N.>.w.{.{.C.s.8.i.q.( R ( V s & ] X.m ..n { n y a b { [ )  .| ..O...[ ..n { n y ",
"c [ b { o.....O...[ X.O.X.1.} r V $.-.%.=.q.0.#.N.M.{.+XoX.X{.f.[.f.q.7.&.A V 6 b o.[ ..k b m y a c [ b } ,.| { ..X.[ ..k b [ y ",
"l m b [ [ [ n ....n { ..] } H 7 V I I &.&.q.q.^ B. X+X@X.X.XOXOXOX[.q.7.0.( E M ) ..[ X.[ [ n y f ) ] I | X.{ [ ..{ [ X.[ [ n y ",
"l c b [ ..[ b [ [ b b c ) c f 7 B f j &.&.q.7.L B.$X&X[.M A |.*X#Xs.8 5 q.d.d.K ] ..[ X.o.X.[ y d H J s ] O.X.| X...[ X.o.X.[ y ",
"x c x [ { [ b b b b b p x J F t B )  .` &.0.` Z B.%X>X{.9 C .X:X;X(.0 0 (.@X#X0.) ....X.....m i d z ) ) { O.%._ { ....X.....m y ",
"k c k h n x x x c [ { ) J z z 8 s _ %.` &.-._ F R.%X>X+X^ e.+X=X=X@X8.&.#X,X:Xi.j b [ [ [ [ b e d x ] [ ..O.| f h b [ [ [ [ b e ",
"h x k b b l k h b b b ) ) j j t M R =.&.R @._ J _. X-X*Xq.7.e.8.e.s.( q.-X,X:Xq.b [ [ [ [ [ b 4 p c ] { ..o.{ [ [ [ [ [ [ [ b e ",
"h k h l x a a h x c b c J j j 7 s H I @.K K P Q _.V.@X=X#XC.0.q w s.d.}.&X-X=X&.[ [ [ [ n [ l 4 p x [ { m [ { X.o.[ [ [ n m l 4 ",
"a h k b c h a h x l x b x i p 8 d z a } K T T R m.w.(..X=X.Xq.A * d.oX.X|.+XoXC b [ [ m b x k i i x [ [ b b c n X.[ [ m b x k y ",
"y a k b c h a a k y x ) H a f 8 M H J R K K i F >.^ q.d.|.s.Y w # 0.d.d.d.(.d.7 b [ n b b h p y i h b b b b k b o.[ n b b h p y ",
"h k l b x k a h b k x b ) H d 7 M K H T U K j P ~ N C E q.U K N 8 ( Y Y &.&.Y % b { c c x y y e i h b c x c b X.o.{ c c x y y e ",
"u p h b b x h a b x x c z j f 6 M U T U U U } I 1 X # % 5 # % * # 7 5 1 5 * *   b [ x b x x k 4 r h b c x x b ..o.[ x b x x k 4 ",
"a h a b b c h l [ k k b J j f 5 s U &.@.Y K F F N 8 5 6 5 1 : % * 5 p p u e < e b c h a h k h , 7 a ) b c x h x [ c h a h k h , ",
"a h a c l h h x b k k b x j d 5 8 K H h } K d K T K s M M 8 8 1 8 C P ) b h a x x h u y a h p 3 3 p ) b b h a x x h p y a h u , ",
"> 4 e a u y y a h p a l j h 7 * 5 d z k J V s B s 7 6 8 6 1 * * 5 8 M K d i d j j i d f f p y 1 : i j a h y e h a y e y u y , ; ",
"X X X & & + + & > ; > , ; & # % % # ; ; & % # % # X # # # .   # # # * : # # * * 1 * 1 1 * % # % # # & & & O X & + X X O + X X X ",
"+ + O O X O + & % % & & * * * 1 * * * * % * * % # # # # % # # * * % % % # # % * * * * * * * * : * * * * % * % & O X O O + X O + ",
"y e e y y y y i i i p f s M s p d M M s M M s s 8 8 7 7 8 8 8 8 8 7 6 8 8 8 8 8 t 8 8 s s t 8 t t t s s d d i p y e e e y y y y ",
"[ [ [ X.[ [ [ { o.X.X.X.,.=.@.| X.0.&.$.t.t.,.4.%.@.Y Y E E E E Y C V U K K P I } J F U _ I H b J ` _ ) X.1. .X.{ { m { O.X...X.",
"[ [ { [ b ....{ ..X.,.X.,.=.@.[ ] =.-.X.1.5.,.X.$.@.Y E &.Y U Y K C C C V K P ) J H F K H F F b H R ) b  .,.$.| [ { [ [ ..[ [ { ",
"k b n b b { { ....] &.| @.E T ) c L &.$.-.&.J | @.&.E E Y K K K C C C N V K P H z F K C F z C x F K z x } @.R ) [ { { [ b m [ ..",
"k l l l c [ [ X.{ I Y _ I U K z x K E E 7.7.P @.&.&.E Y U C V V M N M M C K K H j V C C V S V j V V j x }  .) ] { { [ [ m [ [ [ ",
"k h c c b [ { ..[ P U I L U U F x R E E 7.&.P @.&.E E K C N s M 8 8 8 r s C C F a d V C s s s f B f h j ) ] c ) ] b b c b b b [ ",
"u a l x b n b n ) K U P T C C f j U Y K Y E P L E U U S i 8 8 M 8 8 6 e r M M S j s M V s t t d M f p d V l S P H x k h h c b b "
};
