/* XPM */
static char *_fb31b72a1bc4e4d800c8fb7fc2171b1oaooMWrhnLmjRIAb[] = {
/* columns rows colors chars-per-pixel */
"64 64 185 2 ",
"   c #1F1917",
".  c #201816",
"X  c #241C1B",
"o  c #2C1F1B",
"O  c #2D231D",
"+  c #33251D",
"@  c #39241E",
"#  c #35281E",
"$  c #39291E",
"%  c #252524",
"&  c #2C2622",
"*  c #2D2925",
"=  c #2C2B2B",
"-  c #312621",
";  c #3B2721",
":  c #342A23",
">  c #3B2D23",
",  c #322E2B",
"<  c #3B2F28",
"1  c #3D3126",
"2  c #34312D",
"3  c #3D332B",
"4  c #343333",
"5  c #3A3633",
"6  c #3C3935",
"7  c #3C3B3B",
"8  c #442C23",
"9  c #4B2E25",
"0  c #433225",
"q  c #4A3526",
"w  c #4C3827",
"e  c #43362B",
"r  c #4A3529",
"t  c #45392E",
"y  c #4C3A2C",
"u  c #54352A",
"i  c #59362A",
"p  c #523D2D",
"a  c #5C392B",
"s  c #443B34",
"d  c #4B3D32",
"f  c #423E3B",
"g  c #513F31",
"h  c #653D2D",
"j  c #6A3E2D",
"k  c #643F30",
"l  c #3F403F",
"z  c #55402F",
"x  c #4D4136",
"c  c #44413D",
"v  c #4C433B",
"b  c #544234",
"n  c #5A4534",
"m  c #5E4936",
"M  c #53453A",
"N  c #594738",
"B  c #56493D",
"V  c #5C4B3C",
"C  c #6C412E",
"Z  c #654235",
"A  c #6D4230",
"S  c #614A36",
"D  c #634D3B",
"F  c #6C4A38",
"G  c #774B36",
"H  c #66503E",
"J  c #69533E",
"K  c #77523C",
"L  c #403F40",
"P  c #3F4041",
"I  c #444343",
"U  c #4A4642",
"Y  c #4D4945",
"T  c #474748",
"R  c #4C4C4B",
"E  c #534B44",
"W  c #5B4E42",
"Q  c #524E4A",
"!  c #4F504F",
"~  c #5E5145",
"^  c #54514D",
"/  c #5B534C",
"(  c #4F5050",
")  c #545352",
"_  c #5B5652",
"`  c #5C5955",
"'  c #5D5C5A",
"]  c #614F40",
"[  c #645343",
"{  c #6B5643",
"}  c #6D5845",
"|  c #63564A",
" . c #685749",
".. c #65594D",
"X. c #6C5B4B",
"o. c #775540",
"O. c #725B46",
"+. c #735E4A",
"@. c #635B54",
"#. c #6B5D51",
"$. c #635E59",
"%. c #75614D",
"&. c #79634D",
"*. c #7E684F",
"=. c #6E6154",
"-. c #65615D",
";. c #6B645C",
":. c #746353",
">. c #7A6551",
",. c #7D6954",
"<. c #74665A",
"1. c #75685B",
"2. c #7B6B5B",
"3. c #656463",
"4. c #6A6662",
"5. c #6D6965",
"6. c #6D6C6B",
"7. c #726B64",
"8. c #7B6E61",
"9. c #726F6B",
"0. c #7D7063",
"q. c #7F7366",
"w. c #767069",
"e. c #72716F",
"r. c #75716C",
"t. c #7D746C",
"y. c #747371",
"u. c #757473",
"i. c #7A7672",
"p. c #7B7875",
"a. c #7D7974",
"s. c #7F7B77",
"d. c #7C7B7A",
"f. c #855E47",
"g. c #8A6246",
"h. c #8B674D",
"j. c #816B52",
"k. c #836C53",
"l. c #826C55",
"z. c #856F56",
"x. c #816E5B",
"c. c #826E5A",
"v. c #867157",
"b. c #887157",
"n. c #84715B",
"m. c #84715D",
"M. c #8A755C",
"N. c #8F795E",
"B. c #827363",
"V. c #827364",
"C. c #837564",
"Z. c #847665",
"A. c #887561",
"S. c #8C7963",
"D. c #83766A",
"F. c #857868",
"G. c #867A6E",
"H. c #8B7C68",
"J. c #8C7D6A",
"K. c #917E65",
"L. c #907E68",
"P. c #827B73",
"I. c #867E76",
"U. c #887F75",
"Y. c #837D78",
"T. c #817F7C",
"R. c #968166",
"E. c #94826B",
"W. c #99866C",
"Q. c #9C886D",
"!. c #8D8174",
"~. c #84817D",
"^. c #8A837B",
"/. c #948675",
"(. c #9B8A72",
"). c #91867A",
"_. c #948A7C",
"`. c #878584",
"'. c #8B8782",
"]. c #8B8986",
"[. c #8D8B89",
"{. c #938B81",
"}. c #918E8A",
"|. c #92918E",
" X c #909090",
/* pixels */
"r r y p p y r y d d x v v v s 3 e d M N N M M v M M d s s 2 4 7 7 7 7 7 7 7 7 f f d x x b b d e 5 7 v N b x x M M b r y y 0 0 y ",
"n +.m.M.z.v.n.m.w.Z.H.F.I.P.4.U v 7.I.^.Y.Y.a.i.i.p.i.e.e.6.) 7 I ' 6.6.6.6.6.6.6.w.q.C.A.S.>.N v 1.H.L.Z.B.C.0.q.c.l.l.l.j.} p ",
"n +.,.z.j.*.,.,.=.>.,.>.0.,.=.E I 4.;...5.6.y.9.6.6.6.5.6.3.) P I ' ' -.3.3.' 3.' ..#.;.>.=.X.V v :.c.2.:.:.2.:.>.,.&.&.k.&.{ b ",
"w n { } { { O.X.[ [ H [ X.[ N s f ^ ~ D / ) -.' ` =.$.) ' ) T 7 7 I T R R R ) R U b B E V Y v r t N [ | V N [ D H } O.{ O.J N y ",
"0 0 p z p n N N b y d x B d e 1 5 7 M b f I R Y U V B I T P 4 2 4 4 7 7 7 I I 7 5 0 s s d 6 3 1 0 3 d d 1 e d d d N N n p y e > ",
"0 $ # $ $ > $ $ $ # + - : # + < 4 = : $ * = = , - : : = = = % = 4 = = = = = 4 = : # * * : = * > 1 - # # + + : - # > $ $ # + + $ ",
"r y p n n n p p p b d d d d s s 6 7 d y f I c s s d s 6 7 7 4 4 4 7 7 I I I I l f b c f d c s r t t d t d v x d d y y p n b 0 0 ",
"p >.J.W.R.N.S.M.m.J.!.G.!.U.6.v U 6.G.S.a.p.u.r.w.9.5.6.6.9.) 7 7 ` 6.u.p.u.u.u.7.H.Y.P.U.d.;.b d %.Z.I.~.~.t.P.B.2.,.z.b.M.{ p ",
"N c.A.K.b.v.l.n.c.J.H.a.a.p.u.Q / y.r.V.e.9.6.4.-.3.3.6.3.3.' I I 3.3.6.6.6.3.3.4.C.p.0.D.u.-.M b } =.r.a.D.F.B.c.2.%.&.&.j.&.n ",
"b O.&.z.j.} D +.+.>.,.<.7.4.-.Y W 3.-.X.' ` _ _ ^ ^ ^ ' ) ) R 7 7 ^ ^ -.` _ R R / X.3.@.$.-./ d p D [ ` #.V >.>.X.+.{ &.J +.} p ",
"n O.&.l.j.{ J O.O.&.>.:.4.-.@.v E ' $.X.' ) ) ) R R T ' ) R I 7 7 R ^ ` ^ Q T Y E [ _ / ` ` V t t N #.-.W V :.=.#.+.{ &.O.+.D y ",
"n { &.+.+.%.&.O.{ %.>.:.-.` _ U Y ` ' / ^ ( ) ' R R T ) R T 7 7 7 c v ` ) ^ R R Q / ) / _ W E s y N ..` N D X.=.X.X.} +.O.{ S p ",
"D O.+.M [ &.O.O.{ O.%.X.$./ / v Y ` ` / R ^ ' ' ) R T R T I 7 6 7 c v ) Q Q R ! R ) ' ) _ ~ E s b { _ ' { { X.:.+.{ H N { } D y ",
"D } +.+.+.O.J { { X.+.[ / / ^ f W @._ / ^ ) ) R ) ! I T I I I 6 7 f s ^ Q R Q ! R ) ' ) ` / Y s n { @.' ..{ X.X.{ { { V { H H y ",
"V J { } { O.} X.[ { +.O.X.[ / v V @./ _ _ Q I I R T I I c I I 7 f c v Q Y Q Q ! R R ' ) ` Q U s b V _ _ ~ H { [ { J [ +.} O.J y ",
"m J J J J { O.#.[ { O.{ %.[ / v V / ^ ^ Q U I I I I I I I I P 4 7 c x Y I T ) ) R R ) ) _ R c s p b Q ^ E D [ V { } H } } +.H r ",
"N D m D D H { } { H } { :. .[ b V / ^ Q E U U I I I 7 I 7 I 7 4 7 7 s I f I T R R T R R ) R I 3 d v Y Q Q V V V V D D } { { m 0 ",
"N n n V N V D D D V [ [ #.[ [ b V / _ _ ^ Q U I I I 7 7 7 I 7 4 7 7 6 l 7 7 I I I I Y T R Y c 3 s U Q E E B V V N D D H D H m 0 ",
"n n n m n V S n m D { { [ V V y N ~ / Q Y Y Y T c f 6 f f I 7 4 7 4 5 I 7 7 I I c v B U R T f 3 c Q V n n V V { D D D J H { m 0 ",
"n n N S n N D N b V [ [ W N n e y N ~ Q Y U E Y 7 6 6 f s f 7 4 7 7 7 I 7 7 I c d b M Y R v d e d M N d n V D H V n D H J { m 0 ",
"0 0 e y r 0 t e e t g p b t 0 : < e t t e 3 e 3 2 , = = , , = = 4 = = 2 = = 4 2 3 e e 3 7 3 1 : < 1 3 0 e 0 r t t r 0 r p p 0 # ",
"1 $ $ $ # $ > > > > > > > > > < < : : # O & : > - * % * * * = = 4 = = = = = = , < < < < , < < 1 < - - + O O # # # + + # $ $ # $ ",
"y b n b N B V M b V V [ ..V N B Q W / ^ Q ^ _ Q Q Q Q Q R Y R T I I I L 7 I I 6 6 f c s v v v v c f v f s s s s s v x x v v b p ",
"b Y 6 6 f f f 7 f c v E 7.@./ U / / $.E _ Q $.U _ Q @._ ` U _ I T ` ) R R ) ) R c I R v U U c 6 c 5 , , , 2 2 , , 2 , , , , 3 p ",
"N U 4 4 4 4 4 4 7 7 4 7 ^ U _ f W 3 V - N - W - V & V : M & Y % I ) ' ) T ) R U M U ^ v d d 5 6 s > $ > $ > > $ 0 > 0 $ # # 8 y ",
"d v 4 6 6 f I I I 7 7 f Q Q 3.I W O N & d O g O b O b O d & v & 6 I T I 7 I I f x c v e r t 5 5 f : # : + : : O - - : # + # > 0 ",
"s d s s x W ..` U U v v Y Y U c E < W 3 M < n e W 3 b < d < M , 6 7 7 4 , 5 f 3 s s e < < < < < e < * * & * = * : : - - : - - 0 ",
"e e 1 r t y b b t s d s f f 7 4 5 t x x M d b N V N b d t t d e 5 4 = * & : < 1 3 e > - < < : O O < 3 e 3 3 5 f s e t e y g d t ",
"0 0 0 r 0 0 r t t e 5 5 5 6 5 4 3 1 e s 3 3 d t t t 0 0 0 > < < 2 , 4 4 2 2 3 e 5 5 0 3 e e 3 > > < 3 e e e f s t 0 0 0 r 0 0 0 ",
"p H >.j.,.>.2.2.,.1.7.6.9.7.$.c x ..7.9.1.7.i.r.1.%.%.O.X.X.E s s R -.3.4.3.5.5.4.4.>.;.4.;.` x b { >.,.l.0.r.7.<.>.%.+.+.} D y ",
"z z.W.W.K.K.K.E.E.J.).^.).!.D.W V C.).{.{._.[.^.!.S.M.l.c.t.3.v f 3.d.d.Y.i.i.d.a.P.E.P.T.p.6.Q N m.K.E.K./.'.~.G.H.b.j.l.n.&.n ",
"r D ,.*.%.O.O.%.+.+.>.:.:.+.X.N v $.1.8.7.7.5.;...X.} H [ ~ Q c 7 T ' ' $.` ` ` ` ..%.#.' ) ) v b ..X.:.:.:.;.=.X.+.J N N H D p ",
"0 y H { J H H D V D D H [ [ W s f R ` -.@.$.$...N W E v B v s 5 4 7 Y Q ) Q R Q R E V / Q Y I s s v W | / #.X.[ [ { D D H n p 0 ",
"> + > 0 r 0 0 e 0 0 0 0 e e 3 , 4 = 7 7 7 6 7 6 y s 4 2 2 = * = 4 % = 2 4 2 4 4 2 3 1 3 5 5 2 < 3 , 3 s s t e 0 t e 0 0 0 > # $ ",
"0 $ $ > 8 0 0 0 0 0 0 0 1 1 3 5 6 2 2 2 2 4 4 3 > : = = = = = 4 4 = = , 2 4 4 2 3 1 0 3 3 3 1 0 r > 1 3 1 0 0 0 > $ # # $ $ $ 0 ",
"y m J { J { H J J [ [ ..[ [ v c c ^ -.3.4.-.3.$.../ ) ) _ ) I 7 7 T ) _ ) ) ) ) _ / [ | / / M p b V  .X.X.} +.{ [ H D D J H z w ",
"D N.W.(.(.(.W.(./._._._././.1.v ) ~.|.|.|.|. X}._.{.].`.].`.4.7 R d.[. X}.[.[.].^.!./.).).~.4.x W D.E./.(.W.(.(.W.Q.R.R.Q.W.j.p ",
"J l.j.,.l.&.,.0.i.G.F.G.B.m.2.M _ u.u.p.p.i.u.e.8.5.3.4.4.4.-.f ) u.u.p.i.r.w.7.~ X.7.7.7.6.5.b ~ 1.,.,.>.%.&.,.&.*.O.*.n.z.*.z ",
"m } { V { } +.;.-.2.<.2.<.#.X.x Q 3.6.6.3.-.3.3.<.4.' $.M M / 6 R -.) 7 f f 6 6 e 3 5 f 6 T _ d b { +.X.[ D { %.%.O.{ +.&.&.+.p ",
"n D b b { O.%.:.[ X.:.2.<.<.X.d E 3.6.6.3.4.3.3.4.-.' ;.[ V Q 6 R ' 4 O u i ; u a ; 8 i 8 , E d b { +.X.[ .. .:.,.>.+.&.+.O.+.p ",
"D { m D O.%.>.2.>.%.>.2.=.1.X.d E 3.5.6.3.6.3.3.-./ ) -.X.[ Y 7 R ' 5 X 8 u + r a - ; q + , ~ x n [ +.X.| -.X.%.>.%.} %.{ O.{ p ",
"D } J +.&.%.%.>.+.X.%.>.:.>.X.d E -.4.3.3.5.5.3.' / ~ X.X.| Q 7 R ' 7 - 8 u @ u Z 8 8 9 ; 5 W d b ~ X.[ #.4.#.X.%.%.O.+.N [ { p ",
"S { J O.O.} { :.+.{ +.%.} X./ s B / ..$.3.7.5.-.' ^ W { | / ^ 7 R ' 7 : u i 8 F f.n u a 8 3 N t N [  .[ +.:.#.#.%.+.O.&.O.+.{ y ",
"S J J O.+.} J O.} H [ W [ [ M s N M B -.3.5.-._ _ ~ W ` ` ) R 7 T ) 2 o a i r o.h.n u h ; * b e b D { d X.<.=.X.:.+.O.&.&.%.} p ",
"D D D { O.{ H J { { [ x W [ W d n [ +.@.$.5.' Q E v / ` ) ) T 5 I U = O C A r K g.u u j 8 : b e b V { { #.<.=...X.+.+.%.%.+.{ p ",
"m D V N { D D D H X.X.[ ~ W E d b ..>.@.$.4.` E t x / _ ) ^ I 5 I s = O C A 8 k G r u C 8 * x t b V [ X.#.1.X.N N [ X.X.O.O.{ y ",
"N D V H J V N N [ { { { { N B y b { :.$.@.@.` ~ b V ^ ) Q T I 5 R E = + h h ; u A q u j 8 : d t x W  .+.#.:.X.X.X.{ X.O.O.O.H r ",
"n S n S D n b N D H H [ [ N N t x ~ | $.^ _ ^ ..} / _ ) U T I 5 R / 4 & q 9 + 9 a 8 8 i ; 3 x e x W X.X.X.X.X.:.>.} O.} { } S r ",
"b N S H D n b N D V D [ D d x t v W M @.) _ _ ..X.) ` ) R R I 6 R / 4   @ + X + 8 o + 8 X : b t g V  .X.[ [ D { %.} O.{ J V N p ",
"y b m J D N b n V d D [ ] b n t v ~ [ ` ^ Q s V -.' R Q ^ I f 6 I Q 2 . # # X # 8 O + 8 o * b t y N { { H [ V [ &.O.{ J D b b p ",
"n m m J D m b N [ V D [ [ D b t v [ [ _ ^ E N [ $.' f v ^ I I 4 c U c 3 3 3 3 t d 5 3 s 3 s M e y N [ H D D [ :.>.O.D H D t y y ",
"p z N { J D n M [ D D D V m N e v [ | / / / X.X.$.` N E R T I 4 7 c Q ..[ [ X.X.:.X.....[ W M t d M [ H V D [ +.>.} D H D D m r ",
"b n b H H D n V  .V m { [ N N 3 x ~ =.#._ / S [ ' ) M E I I 7 4 7 c T ' @.[ { [ #.` | { [ E v 3 t M [ [ D D N D } D N b n m n 0 ",
"b n n D S n n D { m V [ W V M 3 s W ~ M @.W b V _ ^ d x c 7 7 4 7 T T ` ) W [ / ' ) Q [ ~ Q v 3 e M [ [ H N b D D n b y b n p 0 ",
"0 r y b p y p z n z b W B M s < 3 v V N / E d M c 7 e s 4 , = = 4 7 I Q v d N V Q I Y V B U s > > d N n N y y n b y r y p y 0 $ ",
"+ O O $ # + # $ > > > 3 > # + + + O > > , * O & % % O O % X X % % % * < & O : > < , , < < : + + + O $ - - + + : + O + + # + O + ",
"$ # # # + # # # # # $ $ $ # > < < # - : * = - * % % O O * % * = = = & O O + + - - - : $ $ # > > $ # $ # # # # # + + + # # O + $ ",
"y w r p y y y y d p b n M x x x v v x x U I x v f 6 e t f 6 7 6 7 7 3 t t t t t d y d d b d s d d y p p b b b d y r r r p y y y ",
"O.O.} &.O.O.O.O.>.:.:.-.4.:.+.X.-.5.#.#.9.9.>.2.-.@.{ ..$.' ' ' ) R B [ W W [ | X.[ ^ ) X.| ^ ) / X.} { :.1.+.%.+.+.{ +.>.&.%.&.",
"{ O.O.O.J +.+.+.%.%.<.;.-.:.O.} @.;.<.:.5.7.>.>.-.$.X.X.$._ ) ' ) Q E V N D [ [ / D W ^ [ W Q / / { J H +.>.+.X.X.+.O.} %.O.O.+.",
"m J J J J O.O.%.+.} X.-.@.X.{ { ~ | #.=.4.-.| X.$.-.X.X./ ^ Q ^ R E N n n D J W E V E Q V V E ^ / D S D O.+.{  .X.O.O.O.J { O.&.",
"S S S S D } O.&.O.J { @./ [ D V W / X.X.3.-.[ X.-.-.#.[ ^ R Y T I I M b N D S ~ Y N E T B B Y E B V S D } +.{ X.+.+.O.} { } { O.",
"m n D D { O.O.%.} H [ _ / [ [ V W @.X.X.-.$.[ #.$.@.@.W E U f I 7 6 s d x m m E U b U R v x v U N n n m { { H { } { { D H J { O.",
"p z V D { { [ { [ [ ~ | | V B M E / | W _ @.[ | @.^ / E c f f I 7 7 s t d b b E R v U Y x s f v b N b b m S N [ [ D V n n H [ { "
};
