/* XPM */
static char *da2d5567e0124a24bd645018668b1c763Z8hF97jvQB6MIue[] = {
/* columns rows colors chars-per-pixel */
"64 64 236 2 ",
"   c #040201",
".  c #0A0603",
"X  c #0E0905",
"o  c #0F0C08",
"O  c #120703",
"+  c #190603",
"@  c #130B06",
"#  c #1A0D06",
"$  c #130E09",
"%  c #1A0E08",
"&  c #161006",
"*  c #1B1007",
"=  c #15110B",
"-  c #1B130C",
";  c #1D190E",
":  c #161512",
">  c #1C1611",
",  c #1D1A13",
"<  c #1D1D1B",
"1  c #230C06",
"2  c #280E07",
"3  c #340E06",
"4  c #281007",
"5  c #23150C",
"6  c #2B150B",
"7  c #241A0E",
"8  c #2B1B0E",
"9  c #33140B",
"0  c #3C1209",
"q  c #321B0E",
"w  c #3B1B0E",
"e  c #241912",
"r  c #231D13",
"t  c #2B1D12",
"y  c #211F1A",
"u  c #321E12",
"i  c #3C1E12",
"p  c #27200F",
"a  c #2A210F",
"s  c #252115",
"d  c #2B2214",
"f  c #2E2816",
"g  c #25221A",
"h  c #2B241A",
"j  c #2C291B",
"k  c #332314",
"l  c #3B2514",
"z  c #342915",
"x  c #3D2916",
"c  c #33251A",
"v  c #3C261A",
"b  c #34291C",
"n  c #3C2A1B",
"m  c #3F3019",
"M  c #252420",
"N  c #2B2621",
"B  c #342A22",
"V  c #3C2D21",
"C  c #3E3023",
"Z  c #3C322A",
"A  c #3E3731",
"S  c #44150A",
"D  c #49140A",
"F  c #431A0D",
"G  c #4A190D",
"H  c #541A0D",
"J  c #421E12",
"K  c #4C1F12",
"L  c #531F10",
"P  c #601B0D",
"I  c #4A200F",
"U  c #432515",
"Y  c #4B2313",
"T  c #432A16",
"R  c #4C2A16",
"E  c #432619",
"W  c #482618",
"Q  c #432C1B",
"!  c #4C2D1A",
"~  c #532413",
"^  c #512717",
"/  c #5A2413",
"(  c #542D1A",
")  c #5C2D1B",
"_  c #403017",
"`  c #44311C",
"'  c #4B321D",
"]  c #53331D",
"[  c #5C341D",
"{  c #55381F",
"}  c #5A3A1F",
"|  c #642916",
" . c #632D19",
".. c #752B17",
"X. c #68361D",
"o. c #73331B",
"O. c #78371E",
"+. c #422E21",
"@. c #552E21",
"#. c #453223",
"$. c #4C3522",
"%. c #4D3826",
"&. c #44352A",
"*. c #493728",
"=. c #4C3A2C",
"-. c #523522",
";. c #5B3422",
":. c #543A24",
">. c #5B3C23",
",. c #5C3729",
"<. c #543D2A",
"1. c #5B3E2A",
"2. c #483C33",
"3. c #6C3522",
"4. c #633D23",
"5. c #673925",
"6. c #693C23",
"7. c #633C2A",
"8. c #743A23",
"9. c #7B3B23",
"0. c #743A28",
"q. c #5E4127",
"w. c #56412E",
"e. c #5C422C",
"r. c #4F443B",
"t. c #544232",
"y. c #5B4533",
"u. c #554638",
"i. c #5C463A",
"p. c #5C4A3A",
"a. c #634225",
"s. c #6B4325",
"d. c #64442C",
"f. c #6C452C",
"g. c #66482E",
"h. c #6C4A2C",
"j. c #724426",
"k. c #7B4426",
"l. c #714827",
"z. c #74432A",
"x. c #7B442B",
"c. c #734C2D",
"v. c #7C4C2D",
"b. c #77502F",
"n. c #7D522E",
"m. c #634532",
"M. c #6E4734",
"N. c #644A33",
"B. c #6B4D34",
"V. c #634A38",
"C. c #734C31",
"Z. c #744837",
"A. c #7B4C33",
"S. c #6C513B",
"D. c #745134",
"F. c #7C5333",
"G. c #73543C",
"H. c #7B553B",
"J. c #7C5839",
"K. c #5C5047",
"L. c #645244",
"P. c #6D5845",
"I. c #755641",
"U. c #735942",
"Y. c #7C5B43",
"T. c #7E6147",
"R. c #7D624B",
"E. c #6F6053",
"W. c #7A6454",
"Q. c #83311B",
"!. c #863C22",
"~. c #85482B",
"^. c #984D2B",
"/. c #85522E",
"(. c #874C32",
"). c #835433",
"_. c #8B5432",
"`. c #855A35",
"'. c #895935",
"]. c #85553B",
"[. c #8B553B",
"{. c #845C3B",
"}. c #8A5C3A",
"|. c #965737",
" X c #A25B3B",
".X c #8D623D",
"XX c #97633C",
"oX c #A46138",
"OX c #835D43",
"+X c #8C5C40",
"@X c #9A5B43",
"#X c #A45E45",
"$X c #B35E41",
"%X c #846143",
"&X c #896344",
"*X c #83654C",
"=X c #8B674A",
"-X c #8C684B",
";X c #966342",
":X c #966943",
">X c #9C6A44",
",X c #936B4B",
"<X c #9A6D4A",
"1X c #866955",
"2X c #88705B",
"3X c #977050",
"4X c #9A7557",
"5X c #A36B43",
"6X c #A76947",
"7X c #B4674E",
"8X c #A87348",
"9X c #B67B4C",
"0X c #A77855",
"qX c #A37C5A",
"wX c #B87C56",
"eX c #997B62",
"rX c #A37C61",
"tX c #AF8159",
"yX c #B3845D",
"uX c #B88359",
"iX c #9F856D",
"pX c #A98567",
"aX c #B48964",
"sX c #B78A68",
"dX c #B8906D",
"fX c #AB8E75",
"gX c #BA9678",
"hX c #C18C5F",
"jX c #C5926A",
"kX c #C28E75",
"lX c #C89D78",
"zX c #D5A57B",
"xX c #CCA586",
"cX c #D8AE8E",
"vX c #C6AA92",
"bX c #EFC8A6",
/* pixels */
"d n r ; 7 7 d . . % = @ - . . $ t 5 l u t f.Q u 5 { -.. o $ r R.<.$.u w k./.,XeX1XV = <.pXy.&.<.Q k n k t r n k = r 7 7 $ ; z d ",
"d x s , 5 8 t . . e t 8 5 @ o e #.= 5 u Y ) ) W 8 T k   c e = t 5 5 O F ~._.N.r b p.h <.4X<.$.7 5 - - $ $ = e @ o d 7 7 > ; d z ",
"7 z 5 ; 7 a d $ 5 u u q i w # o 5 % 5 @.3...z.C.d.Q t t *XV.c ; o - O 6 X.|.m.; u.2X, n Q 8 5 2 3 1 . O % = % @ @ s 7 7 : = 8 d ",
"5 d - o 7 z d ; n %.:.;.;.[ T 7 %.b k C.].~._.;X&Xd.l n m.-.E i x 5 @ 5 x d.&X1XvXfXp.q.A.U ~ | H D 1 1 u k 5 = = r 7 ; o $ r d ",
"; d ; ; s z d r $.t.<.d.x.F.>.d n #.e $.7.9.9.>.B.d.n t x ~ | 8.3.w - k d Q q.3XiXP.g.Q c.k.Q.Q.3.) E e +.#.c t 5 r 7 5 = ; r d ",
"5 d , , ; d d 7 t = , *.Q 8 t Q V t.t @ # Y Y - t :.k % . w (.6X5X( + 7 5 n c c - ; l k F.h.l 0.(.M.+.e t b n c ; r 7 r y , , d ",
"5 7 , : = d s 5 d , b b k @ . k c c e t -.x ' f.Q k 7 ; $ t $.n =.%.@ - - ; % o   . t 5 b.q.c N.<.t % $ $ c h c 5 7 7 e < = > r ",
"7 7 ; $ ; s r e u.E.P.h d h.$.t o % 5 %.{.-.] {.B.= = e.D.e.V $ @ t e r = = ; - ; ; ' 8 {.cXcXfXy.*.k @ @ ; e c t 7 8 e = $ > y ",
"5 r 7 r r s s > Z E.L.=.e.3XdXw.$ % = = c l l t 5 # @ l a.$.y.W.p.d d c 5 % > ; - n Q 8 D.pXxX4Xe.,XqXQ % @ % ; ; 7 d y y , y g ",
"7 r s y , s g = - 2.2.=.<.U.2Xy.e % o % 5 % k Q Q :.$.k l $.N.pXeXC n $.t > c d r u.t 5 :.h.' 1.B.B.m.c e e o - % r r y g , , g ",
"r r r : > h s = - t , = e e r c e ; 5 ; #.Q d.,XqX-Xd t Q x $.<.b c t k 5 5 t e h 2.b ` 1.>.T k x 8 # % % - @ . o r r y y : y y ",
"s s ; & r h h = > > o . . . @ e d e % ; d n B.e.=X1.t n q.u t t n k - t - = d d d % t -.1.' q 5 q 8 8 % @ % @ @ o d r s = = h d ",
"s r 7 r s b h & . . $ ; ; k 5 - h k ; @ % ` k o e.<.$.aXzXD.t 8 = 5 = = 5 = = t - o 8 Q k 5 O O l s.x . . X . o @ r r g , y h d ",
"r r s h j s s o   . ; h v Q u +.V.Y.<.t # ' -.S.lXY.` uXtX' ' OXb % k k t % @ % % 1 1 8 ] ( F 9 5 q 5 + O @ . . o , r s g g f s ",
"r d s < ; r r o . = 5 5 7 5 u <.V.R.m.+.% - R ].0X;X;X.Xa.k T G.#.5 Q k 5 7 8 l 8 6 4 ~ O.o.8.X.1 9 G S 9 q 5 = @ y d , M > 5 s ",
"r f r o , r r o o = t c k k n v &.2XW.n O 2 0 L / Y ! l k 5 ' 8 o % = # 6 ! a.h.4.>.! 9.^.$X6X;.U o.o. ./ ^ l 7 $ y c s = & 7 d ",
"s b s s s s r % @ % c V.S.1.c   $ K.L.k l  .o.O.!.k.R 5 5 % q - O 5 8 O q l.}.5X5XXX.X+X7.M.Q 8 ;.) ^ ^  .Y E 7 = j b h y s d d ",
"j s s j s s s = e $ ; c e.B.n h B &.h k l._._._.f.4.>.T @   X @ 8 c.a.O 5 '.wXXXk.4.<X&X% V +.6 ! 6 6 q # @ c t ; h f f h h d z ",
"s s g < r s , ; #.b = % 5 $.n m.N.V c 8 } R ' >.- @ ' ' % . X . % T 7   k >.] 5.v.4.d.4X2XvXrXR A.A.( 5 5 % k t % s h h M : d f ",
"s s ; o r r ; $ u 5 # 1 6 u 8 k l t ' ' k . . - k #.q.' 5 5 # + O . . . % Q {.5XuX}.t S.vXvX4Xd.).@X;.8 m.I.` 8 % h d s = $ s s ",
"s s y r h s r 5 8 5 4 w ] T l 8 8 k D.J.k k >.8 :.0X&Xk w ~ ~ D 9 O @ O O -.>X6X6X6X-.v G.I.<.-.] 6.4.$.1.<.' t = s s s , y h h ",
"s s g g j h y 5 t E W Y q * u q # # 7 5 8 h.5XF.g.1.l R k.~.^.~.j.l % O # ;. X X6.+X>X' #.<.e.w.T ! Q :.:.%.<.n ; f s s g g h h ",
"y s g < d j h = k v E 9 * % q ' 5 % * 5 l a.a.Q 5 7 x ' >.).'.>XD.-.5 # 8 { |.5.1 q h.-   - t.#.7 Q ' k 5 &.*.5 @ f z h M : j h ",
"s s , = s j j = 7 o O 5 - u {.8XQ 8 8 u ' `.Q X . u T % - x ' :.$.n 8 # u 5.(.c.u 5 T @   . d d d #.$..   > ; . . d z s ; ; j h ",
"g g g h h h j = - @ 5 8 = ' <X=XQ 7 8 8 T -.8 % % t { $.e.l 8 5 = # 2 1 1 w k.8XF.k - d e $ % h c #.<.V B h & e = z z f j j j j ",
"y y h j h s h @ % n d.1.' :.n 8 t 8 q l l x $.n - 7 1.tXsXn 5 [ # 2 G G q q [ f.:.k % d *Xy.. *.$.Q m.W.L.Z > c t z z f j j f f ",
"s s g < , h g . $ #.e.:.k 5 8 i l ;.K / ( x ' k = e n d.J.{ U X.U  .O.i l k x l :.q.c d y.n k $.Q Q ' =.i.V c t 5 x x z g : s f ",
"g y , = y s s o o e e ; ; t Q ,.Q m.7.3.6.] k - ; c b b $.} k._.o.^. .# 5 F.F.:.J.d.$.7 - 5 u 5 # 8 Q :.&.w.<.c = _ x f ; ; d f ",
"h h s s s d s $ @ = @ @ @ k e.S.+.+.G.A.f.4.x t c c &.h n ] s.4._.).x k d.jX4Xq.%Xd.%.t # 5 u 5 8 x :.' %.y.N.n ; m _ z s d d d ",
"y s g g y s d - = e > % @ k 1.B.- . v E e Q t = t B e   @ 5 # 5 ] * t n h.{.1.` c <.N.k * * 5 5 8 ! k . = k k = = x _ f h d a d ",
"y d g < ; d d = % ; C b ; $.4.C.t % E u   5 t - > c % . 1 9 9 4 6 8 n.{.h.:.k 7 5 #.%.e 8 7 X X 8 ' d.e.d 7 @ . = b _ z g = 8 d ",
"y f , $ ; d r o o $ r r = k >.>XgXrXS.>.' <.Q v u t 5 R 8.9.9.) q } 5XF.k t k <.%.%.$.k n t . 8 Q Q {.&Xl l e.8 = c m z - & 8 a ",
"s j s s s d r o o = $ - = ; n m.aXyXJ.F.0XrX-.,.M.v E (.|.6X6X).>.' -.` v c :.B.N.I.B.:.$.k l x ' k x 1.n Q D.' @ c m z d a d 8 ",
"h f h h s f , o = , = % ; ; t t h.XX:XF.H.i.i.I.Z.E ;.).].J.=X:.q.-.k n Q b *.S.S.*XR.S.:.-.h.h.Q 7 X - - - k 8 o z z c h d d r ",
"s h g g r z ; $ = r > $ = o % % = 7 8 k G.&.h i.1X! 4.k 5 #.n . 5 ' k 5 8 Q b =.t.U.*X<.` ' `.XXh.t . X @ o o X o c b d M : 7 e ",
"y h r & ; z ; $ r h > $ @ . O + + + . n -Xc . b 4XM.[ 8 k $.v H.A.Y 9 1 8 k k h > V #.Q U l ] 4.1.n 5 . . . . . . f c d ; = e r ",
"s s s r d z > o e V ; % 5 6 9 3 0 0 9 {.xXpX#.d v ;.s.>XjXD.Q wXwX| D D 9 8 u t t k :.] U E J Y l k 8 o o . . . o d d d r r r r ",
"s s s y s f ; . % e = 5 k :.d.;.3.| ..~.OX1.U F 0 w { >XwX:Xc.A.[ / ..| I 6 - k Q n .Xv.;.7.;.! ;.l @ % % . . . o d d r s y r r ",
"s d g g , f , $ @ - t t l C.%XH.4XwX XoX( X.O.../ ) Q Q :.q.a.'.}.X.Y 5 ] ' 7 n :.n D.:X7.S.OXY.5.R # - t = . . @ d d r M , e d ",
"d d ; & , f y o % k c k u f.%.e =.0XF.l.R X.o.O.o.X.>.n 8 t :.k Q T 8 X T a.k e.e.Q F.,X- # z.m.u u 5 5 k 5 % % = d s r - = r r ",
"d d r r s f s o 5 V - $ t 1.t   d %.@ 5 l # # R R U >.$.5 5 n . @ x ' 4.D.d.k $ @ 8 q.=Xh v Q 5 . o 8 - % - c = o d d d r r r r ",
"f d d s , z s $ r h     = B.2XY.OXe.@ % U 5 = # - . k ' = % l l a.} ' n.hXY.7   % 5 :.gXxXkX#.O m.m.k = % d <.#.5 c s d d s d s ",
"d d r < = s s ; r B h h e C eXpXG.B.G.d.X.XXl.5 s.] ] ! 5 = Q XX9X'.n./.{.d.8 = #.<.e.qXgXsXd.#.qXdX%.= 5 b y.e.d c r r g > r r ",
"7 d - o = s y - = c B g ; . y.=X%X%XsXyX[ n./.h.>X9Xs.x t 5 ' b.c.{ x k k x ] Q b +.B.,X{.e.B.B.m.#.r e e d t t 5 d d d = $ t r ",
"5 8 7 ; y y r = = > = o . . r &.t.*.*.n T ! U Q ' v t 8 - 5 t e t t t 8 8 ! }.g.; C S.Y.1.t t k k % ; d c k = @ @ r t d ; r d y ",
"7 r s s y y s $ ; h h > > > o . o - o @ u k ] ! ' +.k t t c h b c e Q -.! s.`.7   p.R.w.b c n b e % % 8 t k - . o r r d d r d s ",
"s s s y > s s & ; h , . $ K.2..   .     ; k x F.J.N.c % @ t B b ;   % :.>.s.<Xw.r t.B . = e t k 5 O . O # 8 5 @ . r d r g : r s ",
"s s , $ ; s s = 7 n = o , r.2.o o r = ; = 5 u -.$.Q k 5 t b c t - . o 8 } `.qXxXeXP.B . = - 8 5 # O + 1 1 # - % . d d d - $ s r ",
"y s y , s d h = 5 u 8 8 e e % @ > t 5 >.W w F w 8 5 8 u k n Q k 5 5 5 5 T XXC.G.V.n e.Y.Q 5 v 8 - 6 J i J E t o o d z d r r s h ",
"y s s s s d t ; - 5 6 6 9 2 + @ @ % 8 U  .| L F 6 q 6 q T x l 6 9 w G w i ] U q 9 9 T H.U 4 w q 5 q ! ! -.;.Q $ X d d r s s r r ",
"g s g g 5 d r 5 u t i W J i l 5 = # # W (.v.>.t % 5 q q T { >.U ( 3.J u w w U ;.;. .E q 9 G H H G 9 % - t E 5 $ $ d d r g , r r ",
"g r = . 7 8 r e k k r t % k :.t t 5 5 (  X[.%.@ % ' R 6 8 }.F.~.[.<.% . ' l.( F.@X#X].[ 5.x.x.0.0.5.% . = $   . = d r r $ o r d ",
"s r , ; 7 a r r +.v t - % 8 ' l k 5 8 ;.[.:.t = a.9X6.U 8 ' 6.x.@.k r #.dXsXC.sXkXG.A.|.|.(.#X7X0.T v V r , N ; = r r d ; ; , s ",
", r > , 7 8 r e &.=.+.u :.,XOX8 - % 8 ] >.= - t j.v.R ] T l ] q . u c e.0X&X<.&.L.#.:.8X).O Q 7.5 O t &.Z A E.t.= r r d , ; r d ",
", , > < - 5 5 e b &.*.<.f.<XY.5 u w 9 9 U q d.).c.4.! T T 5 k t u C.B.D.{ l ; @ u.W.*..X.XC *Xy.t m.G.&.2.2.r.h % e 7 s g : 5 a ",
", r = . - 7 r c #.n b d k l - 6 G G Y J w ( F.D.B.{.c.T 6 5 t n D.}.h.x O . e t.vXgX*.>.lXbXbXR.#.qXpX2.c V t X o ; 7 p & o 7 a ",
", r , > e r r ; ; ; % o @ @ 8 3.~.Z.z.f.] s.F.B.qX0X{.a.8 Q ' ' ` 5 8 l - 5 t U.fXpXd.] yXgXdX,XOXD.n h #.=.; @ @ 5 7 d 5 ; d d ",
"r r , , , r r $ @ @ ; @ @ 5 l ^ @X0X].d.;.{ t . V.aX,Xh.5 x l x 5   % 8 6 4.>.t r m.>.Q }.8XD.n e 7 k k V.p.5 = @ 5 7 7 ; 7 d a ",
"r d , : = , r = $ % @ o o = @ . t :.k @ 7 t - % 5 e c :.8 u 8 l 8 8 ' 8 * l x @ @ 8 5 ' .X:Xh.=   8 ' 7 t t 5 = o 7 7 7 < = a d ",
"d d & . = , y = $ $ $ % @ d c b <.t - $ @ l h.h.] 1 O q F U U u 8 ! } l 8 5 O 5 l 8 @ -.}.:.7 @ 5 F.c.8 % 5 7 % o a 7 5 $ o a z ",
"y d ; > , , y > d d ; = r Q %XlXaXc <.T.c $.{.'.8.Y 3 H P H S 9 5 8 k T 5 X # 5 8 7 v ' -.5 . # 5 } x 5 # 5 8 = o 7 a 7 - ; z z ",
"r r > , , , , ; c C t = ; t <.pX,X%X%XaXT.<.-X0X).X.O.!.Q.o.3.6.] 8 q x k Q 4.d.;.-.>.4.{ k T ).>.T 8 5 * % = = o 7 a 7 ; 7 z z ",
"e e , : = , , , C t.C - 5 t k $.Q Q e.N.Q % :.uXF.l.XX6X|.;X+Xv.>.T a.c.' D.'.[.].F.;X_.4.{ n.).} k l x 8 5 - - @ r s s y ; z k ",
", , $ . ; , y - d V V d k t k t 5 . Q :.8 5 ' ' 8 h.8X<Xe.e.B.0X:Xc.`.' d.3X=XeXOX,XsX.X' l a.n.>.x T ' >.-.8 - = r 7 d @ @ z a "
};
